<?xml version="1.0" standalone="no"?>
<!DOCTYPE svg PUBLIC "-//W3C//DTD SVG 1.1//EN" "http://www.w3.org/Graphics/SVG/1.1/DTD/svg11.dtd" >
<svg xmlns="http://www.w3.org/2000/svg" xmlns:xlink="http://www.w3.org/1999/xlink" version="1.1">
<metadata>
Created by FontForge 20150318 at Wed Jun 24 08:57:21 2015
 By uniteet7
Copyright (c) Thirstype, Inc., 2003. All rights reserved.
</metadata>
<defs>
<font id="apexsansbook" horiz-adv-x="1105" >
  <font-face 
    font-family="apexsansbook"
    font-weight="500"
    font-stretch="normal"
    units-per-em="2048"
    panose-1="0 0 0 0 0 0 0 0 0 0"
    ascent="1536"
    descent="-512"
    x-height="1024"
    cap-height="1536"
    bbox="-61 -532 2621 2068"
    underline-thickness="102"
    underline-position="-153"
    unicode-range="U+0001-E000"
  />
<missing-glyph horiz-adv-x="748" 
d="M68 0v1365h544v-1365h-544zM136 68h408v1229h-408v-1229z" />
    <glyph glyph-name=".notdef" horiz-adv-x="748" 
d="M68 0v1365h544v-1365h-544zM136 68h408v1229h-408v-1229z" />
    <glyph glyph-name="glyph1" horiz-adv-x="2048" 
 />
    <glyph glyph-name="glyph1" horiz-adv-x="2048" 
 />
    <glyph glyph-name="uni000D" unicode="&#xd;" horiz-adv-x="2048" 
 />
    <glyph glyph-name="uni0001" horiz-adv-x="1361" 
d="M-41 512v166l205 127v731h418q147 0 259.5 -38.5t185.5 -105.5t118.5 -166t64.5 -210t19 -248t-19 -248t-64.5 -210t-118.5 -166t-185.5 -105.5t-259.5 -38.5h-418v639zM309 135h281q108 0 191.5 31t137.5 85t88.5 135t49 174t14.5 208t-14.5 208t-49 174t-88.5 135
t-137.5 85t-191.5 31h-281v-506l205 129v-166l-205 -129v-594z" />
    <glyph glyph-name="uni0002" horiz-adv-x="1146" 
d="M143 512q0 100 11 176.5t40 145.5t76.5 113.5t123.5 70.5t179 26q170 0 273 -96q-28 258 -113 369l-305 -191v166l186 117q-65 21 -122 21q-204 0 -318 -56v123q111 59 318 59q150 0 253 -65l238 147v-165l-135 -84q87 -120 121.5 -332.5t34.5 -544.5q0 -100 -11 -176.5
t-39.5 -145.5t-76.5 -113.5t-124.5 -70.5t-179.5 -26t-179 26t-123.5 70.5t-76.5 113.5t-40 145.5t-11 176.5zM287 512q0 -57 1.5 -95.5t8 -85t18 -76.5t32.5 -61t51 -48.5t74 -28.5t101 -11q65 0 113.5 13t79.5 41.5t50.5 61t28.5 83.5t12 96t3 111t-3 111t-12 96
t-28.5 83.5t-50.5 61t-79.5 41.5t-113.5 13q-57 0 -101 -11t-74 -28.5t-51 -48.5t-32.5 -61t-18 -76.5t-8 -85t-1.5 -95.5z" />
    <glyph glyph-name="uni0003" 
d="M-41 512l205 127v-639h850v135h-705v594l205 129v166l-205 -129v641h-145v-731l-205 -127v-166z" />
    <glyph glyph-name="uni0004" horiz-adv-x="573" 
d="M0 512v166l207 129v729h139v-643l209 131v-166l-209 -131v-539q0 -53 19 -72.5t67 -19.5v-116q-114 0 -169.5 52.5t-55.5 172.5v436z" />
    <glyph glyph-name="uni0005" horiz-adv-x="1280" 
d="M141 61q73 -33 199.5 -57t230.5 -24q132 0 234 28.5t164 73.5t101.5 107.5t54 123.5t14.5 129q0 106 -31 181.5t-95.5 123.5t-148 75t-202.5 42q-55 7 -86.5 11.5t-73.5 13t-65.5 17t-52 22.5t-43.5 31.5t-29 41.5t-19.5 55t-5.5 70q0 52 9 93.5t33.5 81t65 66
t106.5 42.5t154 16q116 0 207.5 -17.5t194.5 -61.5v139q-153 71 -400 71q-123 0 -218 -28t-150 -71t-89.5 -102t-46.5 -113.5t-12 -113.5q0 -187 110 -276t382 -123q82 -11 135.5 -23t98.5 -32t68.5 -50.5t36.5 -74.5t13 -107q0 -331 -412 -331q-51 0 -100.5 4.5t-83 9.5
t-77.5 17t-61.5 17.5t-60 20.5t-49.5 17v-136zM311 2048l256 -358h164l256 358h-61l-277 -238l-276 238h-62z" />
    <glyph glyph-name="uni0006" horiz-adv-x="1003" 
d="M137 741q0 58 20 109t62.5 96t119.5 71.5t181 26.5q177 0 295 -51v-123q-142 48 -297 48q-141 0 -193.5 -46t-52.5 -131q0 -36 9 -60t34 -44t71.5 -31.5t119.5 -17.5q107 -10 178.5 -33t111 -61.5t55 -85t15.5 -113.5q0 -50 -12.5 -94t-43 -85t-76.5 -70.5t-117.5 -47.5
t-161.5 -18q-73 0 -164 15.5t-141 35.5v123q131 -48 307 -48q147 0 208.5 52t61.5 135q0 39 -8 65.5t-31 51t-70.5 39t-121.5 20.5q-108 10 -181 33.5t-110.5 60.5t-52.5 79t-15 99zM164 1536l256 -358h164l256 358h-62l-276 -238l-277 238h-61z" />
    <glyph glyph-name="uni0007" horiz-adv-x="1433" 
d="M92 1536h176l449 -772l448 772h176l-553 -901v-635h-143v635zM688 1690h62l297 358h-195z" />
    <glyph glyph-name="uni0008" horiz-adv-x="1044" 
d="M72 1024h164l286 -840l287 840h164l-590 -1536h-154l232 539zM492 1178h61l297 358h-195z" />
    <glyph glyph-name="uni000B" horiz-adv-x="1228" 
d="M164 0v1536h145v-307h324q112 0 200.5 -25t146.5 -68t96 -102.5t54.5 -125t16.5 -140.5t-16.5 -140.5t-54.5 -125t-96 -102.5t-146.5 -68t-200.5 -25h-324v-307h-145zM309 442h332q83 0 146.5 20.5t100 51.5t59.5 76t30.5 87t7.5 91t-7.5 91t-30.5 87t-59.5 76t-100 51.5
t-146.5 20.5h-332v-652z" />
    <glyph glyph-name="uni000C" horiz-adv-x="1157" 
d="M164 -512v2048h143v-575q128 83 287 83q96 0 170 -27.5t120.5 -74.5t76 -116t41.5 -145t12 -169t-12 -169t-41.5 -145t-76 -116t-120.5 -74.5t-170 -27.5q-145 0 -287 83v-575h-143zM307 172q64 -34 128 -50t159 -16q51 0 92.5 12t70 32.5t49.5 52t33 64.5t19 76.5
t9.5 82t2.5 86.5t-2.5 86.5t-9.5 82t-19 76.5t-33 64.5t-49.5 52t-70 32.5t-92.5 12q-106 0 -176 -21q-64 -21 -111 -45v-680z" />
    <glyph glyph-name="uni000E" horiz-adv-x="1310" 
d="M113 0v94l856 1307h-815v135h1013v-94l-856 -1307h887v-135h-1085zM303 2048l256 -358h164l256 358h-61l-277 -238l-276 238h-62z" />
    <glyph glyph-name="uni000F" horiz-adv-x="983" 
d="M92 0v92l594 805h-563v127h747v-92l-594 -805h615v-127h-799zM145 1536l256 -358h164l256 358h-61l-277 -238l-276 238h-62z" />
    <glyph glyph-name="uni001B" horiz-adv-x="563" 
d="M209 -422v979h145v-979h-145zM209 692v977h145v-977h-145z" />
    <glyph glyph-name="uni001C" horiz-adv-x="1064" 
d="M123 631v135h819v-135h-819z" />
    <glyph glyph-name="uni001D" horiz-adv-x="1064" 
d="M195 457l241 241l-241 242l96 96l241 -241l242 241l96 -96l-241 -242l241 -241l-96 -97l-242 242l-241 -242z" />
    <glyph glyph-name="space" unicode=" " horiz-adv-x="409" 
 />
    <glyph glyph-name="exclam" unicode="!" horiz-adv-x="450" 
d="M113 92q0 47 32.5 80t79.5 33t80 -33t33 -80t-33 -79.5t-80 -32.5t-79.5 32.5t-32.5 79.5zM113 1536h225l-72 -1106h-82z" />
    <glyph glyph-name="quotedbl" unicode="&#x22;" horiz-adv-x="737" 
d="M123 1536h205l-64 -512h-78zM410 1536h204l-63 -512h-78z" />
    <glyph glyph-name="numbersign" unicode="#" horiz-adv-x="1198" 
d="M31 258l41 135h184l92 240h-174l41 135h184l99 256h137l-98 -256h309l98 256h137l-98 -256h184l-41 -135h-194l-92 -240h184l-41 -135h-195l-98 -258h-137l98 258h-309l-98 -258h-138l99 258h-174zM393 393h309l93 240h-310z" />
    <glyph glyph-name="dollar" unicode="$" horiz-adv-x="1003" 
d="M137 741q0 58 20 109t62.5 96t119.5 71.5t181 26.5l80 236h154l-95 -246q88 -13 156 -41v-123q-142 48 -297 48q-141 0 -193.5 -46t-52.5 -131q0 -36 9 -60t34 -44t71.5 -31.5t119.5 -17.5q107 -10 178.5 -33t111 -61.5t55 -85t15.5 -113.5q0 -50 -12.5 -94t-43 -85
t-76.5 -70.5t-117.5 -47.5t-161.5 -18l-80 -236h-154l94 246q-108 16 -165 41v123q131 -48 307 -48q147 0 208.5 52t61.5 135q0 39 -8 65.5t-31 51t-70.5 39t-121.5 20.5q-108 10 -181 33.5t-110.5 60.5t-52.5 79t-15 99z" />
    <glyph glyph-name="percent" unicode="%" horiz-adv-x="1894" 
d="M133 1157q0 201 83.5 300t266.5 99t267 -99.5t84 -299.5t-84 -299.5t-267 -99.5t-266.5 99t-83.5 300zM264 1157q0 -151 50.5 -213.5t168.5 -62.5t168.5 62.5t50.5 213.5t-50.5 214t-168.5 63t-168.5 -63t-50.5 -214zM326 0l1085 1536h158l-1086 -1536h-157zM1061 379
q0 201 83.5 300t266.5 99t266.5 -99t83.5 -300t-83.5 -300t-266.5 -99t-266.5 99t-83.5 300zM1192 379q0 -151 50.5 -214t168.5 -63t168.5 63t50.5 214t-50.5 213.5t-168.5 62.5t-168.5 -62.5t-50.5 -213.5z" />
    <glyph glyph-name="ampersand" unicode="&#x26;" horiz-adv-x="1505" 
d="M113 461q0 143 75 245.5t191 159.5q-43 157 -43 312q0 53 11 103.5t37.5 101t66 88.5t103 61.5t142.5 23.5q88 0 150.5 -19t95.5 -54.5t47.5 -78t14.5 -97.5q0 -42 -21 -99h-127q14 44 14 99q0 56 -35.5 89.5t-138.5 33.5q-65 0 -110.5 -23t-68 -62.5t-31.5 -79.5t-9 -87
q0 -70 14 -152.5t41.5 -175t74 -185.5t105.5 -178.5t142.5 -160t179.5 -123.5q205 131 205 381q0 313 -256 313q-84 0 -134 -7.5t-112 -27.5v123q121 39 246 39q181 0 290 -109.5t109 -330.5q0 -270 -204 -439q108 -30 235 -30v-135q-208 0 -381 75q-163 -75 -346 -75
q-127 0 -229 27t-180.5 83t-121 150.5t-42.5 220.5zM256 461q0 -92 31.5 -161t90 -111t135.5 -62.5t173 -20.5q98 0 197 27q-159 103 -277 261.5t-186 342.5q-164 -86 -164 -276z" />
    <glyph glyph-name="quotesingle" unicode="'" horiz-adv-x="450" 
d="M123 1536h205l-64 -512h-78z" />
    <glyph glyph-name="parenleft" unicode="(" horiz-adv-x="634" 
d="M133 625q0 184 24.5 357.5t65 304.5t82 226t84.5 158h154q-43 -64 -85 -158.5t-82.5 -225.5t-65.5 -304.5t-25 -357.5t25 -358t65.5 -305t82.5 -225.5t85 -158.5h-154q-43 63 -84.5 158t-82 226t-65 305t-24.5 358z" />
    <glyph glyph-name="parenright" unicode=")" horiz-adv-x="634" 
d="M92 -422h154q43 63 84.5 158t82 226t65 305t24.5 358t-24.5 357.5t-65 304.5t-82 226t-84.5 158h-154q43 -64 85 -158.5t82.5 -225.5t65.5 -304.5t25 -357.5t-25 -358t-65.5 -305t-82.5 -225.5t-85 -158.5z" />
    <glyph glyph-name="asterisk" unicode="*" horiz-adv-x="788" 
d="M18 1204l50 150l262 -123l-23 -76zM117 913l198 213l66 -45l-139 -262zM315 1536h160l-41 -289h-78zM410 1081l65 45l203 -215l-129 -88zM461 1231l264 125l45 -152l-287 -49z" />
    <glyph glyph-name="plus" unicode="+" horiz-adv-x="1064" 
d="M123 631v135h342v342h135v-342h342v-135h-342v-342h-135v342h-342z" />
    <glyph glyph-name="comma" unicode="," horiz-adv-x="450" 
d="M113 92q0 47 33 80t79 33t79.5 -33t33.5 -80q0 -31 -12 -55l-125 -270h-72l51 223q-32 12 -49.5 39.5t-17.5 62.5z" />
    <glyph glyph-name="hyphen" unicode="-" horiz-adv-x="757" 
d="M123 631v135h512v-135h-512z" />
    <glyph glyph-name="period" unicode="." horiz-adv-x="450" 
d="M113 92q0 47 32.5 80t79.5 33t80 -33t33 -80t-33 -79.5t-80 -32.5t-79.5 32.5t-32.5 79.5z" />
    <glyph glyph-name="slash" unicode="/" horiz-adv-x="860" 
d="M0 -422l711 2093h149l-710 -2093h-150z" />
    <glyph glyph-name="zero" unicode="0" horiz-adv-x="1228" 
d="M143 512q0 273 114 402.5t347 129.5q481 0 481 -532t-481 -532q-233 0 -347 130t-114 402zM291 512q0 -216 76 -311t237 -95q164 0 249 96.5t85 309.5q0 211 -85.5 308.5t-248.5 97.5q-161 0 -237 -95t-76 -311z" />
    <glyph glyph-name="one" unicode="1" horiz-adv-x="737" 
d="M51 887v55l359 102h71v-1044h-153v897z" />
    <glyph glyph-name="two" unicode="2" horiz-adv-x="1085" 
d="M115 0v94l581 432q95 70 95 191q0 107 -69.5 154t-211.5 47q-151 0 -326 -62v131q57 23 153.5 40t170.5 17q115 0 199 -25t131.5 -71t69.5 -103.5t22 -129.5q0 -98 -49.5 -172t-173.5 -158l-383 -258h647v-127h-856z" />
    <glyph glyph-name="three" unicode="3" horiz-adv-x="1095" 
d="M133 -340q173 -66 338 -66q363 0 363 326q0 156 -81.5 226.5t-269.5 70.5h-278v135h278q83 0 143.5 24.5t93 66.5t47.5 88.5t15 99.5q0 62 -13.5 109.5t-47 90t-100.5 65t-164 22.5q-149 0 -324 -62v131q57 23 153.5 40t170.5 17q130 0 225 -32.5t148.5 -91t78.5 -130
t25 -159.5q0 -104 -56.5 -199.5t-152.5 -136.5q126 -34 193 -139t67 -236q0 -75 -16.5 -139.5t-54.5 -123t-96 -100t-146.5 -65.5t-200.5 -24q-204 0 -338 65v127z" />
    <glyph glyph-name="four" unicode="4" horiz-adv-x="1228" 
d="M113 0v86l696 958h109v-917h219v-127h-219v-512h-140v512h-665zM289 127h489v674z" />
    <glyph glyph-name="five" unicode="5" horiz-adv-x="1085" 
d="M109 -340q173 -66 340 -66q59 0 110 7.5t109.5 31t99.5 62.5t68.5 108.5t27.5 161.5q0 64 -13 113.5t-30.5 81.5t-52.5 54.5t-61.5 33.5t-76.5 16.5t-78.5 6.5t-85.5 1h-7h-287v752h809v-127h-670v-502q115 11 195 11q59 0 106.5 -4t101.5 -15.5t95.5 -31t81 -53t65 -79
t41 -111t15.5 -147.5q0 -92 -19.5 -166.5t-51.5 -125.5t-79 -89t-95 -59.5t-107.5 -35t-108.5 -17.5t-105 -4q-203 0 -337 65v127z" />
    <glyph glyph-name="six" unicode="6" horiz-adv-x="1239" 
d="M143 707q0 -101 4.5 -178t17.5 -156t36 -135.5t60.5 -108t90 -82.5t125.5 -49t166 -18q83 0 151 17t115.5 44.5t83 67.5t57 82.5t34.5 93.5t17.5 95t4.5 93q0 51 -3.5 93t-15 95t-31 94t-55 82t-83 68.5t-118 44.5t-157.5 17q-140 0 -232.5 -59.5t-136.5 -141.5
q0 659 433 659q216 0 358 -73v135q-121 69 -358 69q-133 0 -232 -41t-162 -112t-101.5 -180.5t-53.5 -233t-15 -282.5zM295 473q0 53 8 100t31.5 97.5t61 86.5t101 59.5t146.5 23.5q61 0 110.5 -13.5t82 -34.5t57 -53t37.5 -63t21 -70t10 -68.5t2 -64.5q0 -48 -6 -92
t-26.5 -96.5t-54 -90t-93.5 -63t-140 -25.5q-348 0 -348 367z" />
    <glyph glyph-name="seven" unicode="7" horiz-adv-x="952" 
d="M51 897v127h850v-98l-577 -1438h-158l598 1409h-713z" />
    <glyph glyph-name="eight" unicode="8" horiz-adv-x="1228" 
d="M96 432q0 126 65 233.5t189 143.5q-97 45 -150 131.5t-53 189.5q0 88 25 161.5t77.5 134.5t145.5 95.5t219 34.5t219 -34.5t145.5 -95.5t77.5 -134.5t25 -161.5q0 -103 -52.5 -189.5t-149.5 -131.5q124 -36 189 -143.5t65 -233.5q0 -74 -17 -139t-56 -123.5t-97.5 -100
t-147.5 -65.5t-201 -24t-200.5 24t-147.5 65.5t-97.5 100t-55.5 123.5t-17 139zM248 432q0 -47 10 -90.5t36 -87.5t66 -76t105.5 -52t148.5 -20t148.5 20t106 52t66.5 76t36 87.5t10 90.5q0 301 -367 301q-366 0 -366 -301zM299 1130q0 -52 17.5 -98t53 -85.5t98.5 -63
t146 -23.5t146 23.5t99 63t53.5 85.5t17.5 98q0 44 -7.5 83.5t-29 80t-55.5 70t-91.5 48t-132.5 18.5t-132.5 -18.5t-91 -47.5t-55 -70t-29 -80.5t-7.5 -83.5z" />
    <glyph glyph-name="nine" unicode="9" horiz-adv-x="1239" 
d="M143 551q0 -51 3.5 -93t15 -95t31 -94t55 -82t83 -68.5t118 -44.5t157.5 -17q140 0 232.5 59.5t136.5 141.5q0 -659 -432 -659q-217 0 -359 73v-135q121 -69 359 -69q133 0 231.5 41t161.5 112t101.5 180.5t53.5 233t15 282.5q0 101 -4.5 178t-17.5 156t-36 135.5
t-60.5 108t-90 82.5t-125.5 49t-166 18q-83 0 -151 -17t-115.5 -44.5t-83 -67.5t-57 -82.5t-34.5 -93.5t-17.5 -95t-4.5 -93zM287 551q0 48 6 92t26.5 96.5t53.5 90t93 63t140 25.5q348 0 348 -367q0 -53 -8 -100t-31.5 -97.5t-61 -86.5t-101 -59.5t-146.5 -23.5
q-71 0 -126 17t-88.5 48t-55.5 65.5t-32 80t-13.5 80t-3.5 76.5z" />
    <glyph glyph-name="colon" unicode=":" horiz-adv-x="450" 
d="M113 92q0 47 32.5 80t79.5 33t80 -33t33 -80t-33 -79.5t-80 -32.5t-79.5 32.5t-32.5 79.5zM113 768q0 47 32.5 80t79.5 33t80 -33t33 -80t-33 -80t-80 -33t-79.5 33t-32.5 80z" />
    <glyph glyph-name="semicolon" unicode=";" horiz-adv-x="450" 
d="M113 92q0 47 33 80t79 33t79.5 -33t33.5 -80q0 -31 -12 -55l-125 -270h-72l51 223q-32 12 -49.5 39.5t-17.5 62.5zM113 768q0 47 32.5 80t79.5 33t80 -33t33 -80t-33 -80t-80 -33t-79.5 33t-32.5 80z" />
    <glyph glyph-name="less" unicode="&#x3c;" horiz-adv-x="747" 
d="M113 631l512 -342v129l-371 280l371 281v129l-512 -342v-135z" />
    <glyph glyph-name="equal" unicode="=" horiz-adv-x="1064" 
d="M123 496v135h819v-135h-819zM123 766v135h819v-135h-819z" />
    <glyph glyph-name="greater" unicode="&#x3e;" horiz-adv-x="747" 
d="M123 289v129l371 280l-371 281v129l512 -342v-135z" />
    <glyph glyph-name="question" unicode="?" horiz-adv-x="1024" 
d="M82 1378q129 47 317 47q89 0 153.5 -13t104 -35t62.5 -58t31 -75.5t8 -94.5q0 -39 -5 -72t-17.5 -59.5t-24 -46t-35 -38t-37.5 -29.5t-45.5 -25t-46.5 -19.5t-51 -19.5q-71 -27 -118 -63t-70 -73t-30.5 -86t-3.5 -90.5t15 -97.5h84q0 46 1 70.5t5.5 57.5t14 51.5t26 40.5
t43 38t63.5 31q78 32 127.5 56t101.5 61t80.5 78.5t47 101t18.5 135.5q0 57 -8 103t-27 94.5t-56 84t-91 64.5t-135.5 44t-186.5 15q-74 0 -170 -15.5t-145 -35.5v-127zM262 92q0 47 33 80t80 33t79.5 -33t32.5 -80t-32.5 -79.5t-79.5 -32.5t-80 32.5t-33 79.5z" />
    <glyph glyph-name="at" unicode="@" horiz-adv-x="2129" 
d="M113 512q0 -126 10 -231.5t37.5 -215t73 -195.5t119.5 -163.5t173 -128.5t238 -80.5t311 -29.5q321 0 524 73l-2 148q-185 -90 -522 -90q-150 0 -270 26.5t-203.5 70.5t-145.5 113t-98 142.5t-58 171.5t-29 187.5t-7 201.5t7 201.5t29 187.5t58 171.5t98 142.5t145.5 113
t203.5 70.5t270 26.5q118 0 215.5 -11t173 -29.5t134.5 -50t101 -66.5t72.5 -84.5t48.5 -98t28.5 -114t14 -125.5t3.5 -139q0 -117 -10.5 -203t-38 -160t-73.5 -120t-118.5 -71.5t-171.5 -25.5v897h-80l-31 -86q-141 106 -319 106q-96 0 -170 -27.5t-120.5 -74.5t-76 -116
t-41.5 -145t-12 -169t12 -169t41.5 -145t76 -116t120.5 -74.5t170 -27.5q157 0 319 104l31 -84h80q135 0 234.5 32.5t162 90t100 148.5t52 194.5t14.5 241.5q0 115 -9 204.5t-34.5 181t-69 158.5t-115 127t-169.5 97.5t-235 59t-310 21.5q-172 0 -311 -29.5t-238 -80.5
t-173 -128.5t-119.5 -163.5t-73 -195.5t-37.5 -215t-10 -231.5zM748 512q0 48 2.5 86.5t9.5 82t19 76.5t33 64.5t49.5 52t70 32.5t92.5 12q96 0 159 -15t128 -51v-680q-64 -33 -111 -45q-70 -21 -176 -21q-51 0 -92.5 12t-70 32.5t-49.5 52t-33 64.5t-19 76.5t-9.5 82
t-2.5 86.5z" />
    <glyph glyph-name="A" unicode="A" horiz-adv-x="1372" 
d="M92 0h160l141 430h586l141 -430h160l-543 1556h-102zM434 557l252 768l252 -768h-504z" />
    <glyph glyph-name="B" unicode="B" horiz-adv-x="1320" 
d="M184 0h500q139 0 241 33t160.5 93.5t85.5 136t27 169.5q0 131 -67 236t-193 139q97 42 153 131t56 192q0 87 -25 158t-78.5 128t-148.5 88.5t-225 31.5h-486v-1536zM330 135v594h366q186 0 263 -69.5t77 -227.5q0 -48 -7.5 -87.5t-30.5 -80t-60 -68t-99.5 -44.5
t-146.5 -17h-362zM330 864v537h350q75 0 131 -15.5t89 -40.5t52.5 -62t26 -72.5t6.5 -80.5q0 -53 -13.5 -97.5t-44 -84t-89.5 -62t-142 -22.5h-366z" />
    <glyph glyph-name="C" unicode="C" horiz-adv-x="1310" 
d="M154 768q0 -136 18.5 -250t62.5 -215.5t112 -171.5t172.5 -110.5t238.5 -40.5q238 0 399 71v139q-107 -43 -196 -61t-203 -18q-122 0 -211.5 49.5t-141.5 140.5t-76 206.5t-24 260.5t24 260.5t76 206.5t141.5 140.5t211.5 49.5q114 0 203 -18t196 -61v139
q-161 71 -399 71q-134 0 -238.5 -40.5t-172.5 -110.5t-112 -171.5t-62.5 -215.5t-18.5 -250z" />
    <glyph glyph-name="D" unicode="D" horiz-adv-x="1402" 
d="M184 0v1536h418q147 0 259.5 -38.5t185.5 -105.5t118.5 -166t64.5 -210t19 -248t-19 -248t-64.5 -210t-118.5 -166t-185.5 -105.5t-259.5 -38.5h-418zM330 135h280q135 0 230.5 46t149.5 133.5t78 198t24 255.5t-24 255.5t-78 198t-149.5 133.5t-230.5 46h-280v-1266z
" />
    <glyph glyph-name="E" unicode="E" horiz-adv-x="1228" 
d="M184 0v1536h891v-135h-745v-537h674v-135h-674v-594h745v-135h-891z" />
    <glyph glyph-name="F" unicode="F" horiz-adv-x="1187" 
d="M184 0v1536h871v-135h-725v-537h653v-135h-653v-729h-146z" />
    <glyph glyph-name="G" unicode="G" horiz-adv-x="1413" 
d="M154 768q0 -136 18.5 -250t62.5 -215.5t112 -171.5t172.5 -110.5t238.5 -40.5q295 0 471 83v744h-461v-135h315v-516q-93 -45 -325 -45q-122 0 -211.5 49.5t-141.5 140.5t-76 206.5t-24 260.5t24 260.5t76 206.5t141.5 140.5t211.5 49.5q119 0 210.5 -21.5t219.5 -74.5
v141q-168 86 -430 86q-134 0 -238.5 -40.5t-172.5 -110.5t-112 -171.5t-62.5 -215.5t-18.5 -250z" />
    <glyph glyph-name="H" unicode="H" horiz-adv-x="1413" 
d="M184 0v1536h146v-672h753v672h146v-1536h-146v729h-753v-729h-146z" />
    <glyph glyph-name="I" unicode="I" horiz-adv-x="604" 
d="M229 0v1536h146v-1536h-146z" />
    <glyph glyph-name="J" unicode="J" horiz-adv-x="839" 
d="M102 -6v131q65 -16 144 -16q107 0 165 39.5t58 134.5v1253h145v-1249q0 -307 -368 -307q-87 0 -144 14z" />
    <glyph glyph-name="K" unicode="K" horiz-adv-x="1280" 
d="M184 0h142v590l133 153l559 -743h190l-659 848l598 688h-189l-632 -766v766h-142v-1536z" />
    <glyph glyph-name="L" unicode="L" horiz-adv-x="1146" 
d="M184 0h850v135h-704v1401h-146v-1536z" />
    <glyph glyph-name="M" unicode="M" horiz-adv-x="1781" 
d="M184 0h140l-9 1354l519 -1118h114l518 1118l-8 -1354h139v1536h-186l-520 -1116l-520 1116h-187v-1536z" />
    <glyph glyph-name="N" unicode="N" horiz-adv-x="1433" 
d="M184 0v1536h105l825 -1245l-4 1245h139v-1536h-104l-826 1245l5 -1245h-140z" />
    <glyph glyph-name="O" unicode="O" horiz-adv-x="1454" 
d="M154 768q0 94 5 170.5t20.5 160.5t41.5 148t70 124.5t103 99.5t143.5 62t189.5 23q106 0 191 -23.5t144 -62t102.5 -99t69.5 -124.5t41 -148t20 -160.5t5 -170.5t-5 -170.5t-20 -160.5t-41 -148t-69.5 -124.5t-102.5 -99t-144 -62t-191 -23.5q-105 0 -189.5 23t-143.5 62
t-103 99.5t-70 124.5t-41.5 148t-20.5 160.5t-5 170.5zM305 768q0 -83 4 -149t15 -136.5t30 -123t51 -101.5t76 -79.5t106 -49t140 -18.5t140 18.5t106 49t76 79.5t51 101.5t30 123t15 136.5t4 149t-4 149t-15 136.5t-30 123t-51 101.5t-76 79.5t-106 49t-140 18.5
t-140 -18.5t-106 -49t-76 -79.5t-51 -101.5t-30 -123t-15 -136.5t-4 -149z" />
    <glyph glyph-name="P" unicode="P" horiz-adv-x="1269" 
d="M184 0v1536h469q112 0 200.5 -25t146.5 -68t96 -102.5t54.5 -125t16.5 -140.5t-16.5 -140.5t-54.5 -125t-96 -102.5t-146.5 -68t-200.5 -25h-323v-614h-146zM330 750h332q83 0 146.5 20t100 51.5t59.5 76t30.5 86.5t7.5 91t-7.5 91t-30.5 87t-59.5 76t-100 51.5
t-146.5 20.5h-332v-651z" />
    <glyph glyph-name="Q" unicode="Q" horiz-adv-x="1454" 
d="M154 768q0 101 6 182t22 165t42.5 147.5t70.5 120.5t103 94t142.5 58t186.5 21q105 0 188.5 -21.5t143 -57.5t103 -93.5t70 -121t42 -147.5t21 -165t5.5 -182q0 -89 -3.5 -158.5t-14 -145t-28.5 -132t-48.5 -111.5t-72 -94t-101.5 -68.5t-135 -44.5v-2l588 -118v-148
l-946 254q-82 22 -145 62.5t-104.5 98.5t-69 123t-41.5 148.5t-19.5 161t-5.5 174.5zM311 768q0 -90 3.5 -158t14.5 -139.5t30 -122.5t50.5 -97.5t74.5 -75.5t104.5 -45.5t138.5 -16.5t138.5 16.5t104.5 45.5t74.5 75.5t50.5 97.5t30 122.5t14.5 139.5t3.5 158t-3.5 158
t-14.5 139.5t-30 122.5t-50.5 97.5t-74.5 75.5t-104.5 45.5t-138.5 16.5t-138.5 -16.5t-104.5 -45.5t-74.5 -75.5t-50.5 -97.5t-30 -122.5t-14.5 -139.5t-3.5 -158z" />
    <glyph glyph-name="R" unicode="R" horiz-adv-x="1333" 
d="M184 0v1536h482q141 0 239.5 -29.5t155 -88t81.5 -135t25 -179.5q0 -163 -65.5 -266t-216.5 -142l366 -696h-184l-334 674q-23 -2 -67 -2h-336v-672h-146zM330 807h364q66 0 117.5 10t85 30.5t56 46t34.5 61t16.5 70t4.5 79.5t-4.5 79.5t-16.5 70t-34.5 61t-56 46
t-85 30.5t-117.5 10h-364v-594z" />
    <glyph glyph-name="S" unicode="S" horiz-adv-x="1280" 
d="M141 61q73 -33 199.5 -57t230.5 -24q132 0 234 28.5t164 73.5t101.5 107.5t54 123.5t14.5 129q0 106 -31 181.5t-95.5 123.5t-148 75t-202.5 42q-55 7 -86.5 11.5t-73.5 13t-65.5 17t-52 22.5t-43.5 31.5t-29 41.5t-19.5 55t-5.5 70q0 52 9 93.5t33.5 81t65 66
t106.5 42.5t154 16q116 0 207.5 -17.5t194.5 -61.5v139q-153 71 -400 71q-123 0 -218 -28t-150 -71t-89.5 -102t-46.5 -113.5t-12 -113.5q0 -187 110 -276t382 -123q82 -11 135.5 -23t98.5 -32t68.5 -50.5t36.5 -74.5t13 -107q0 -331 -412 -331q-51 0 -100.5 4.5t-83 9.5
t-77.5 17t-61.5 17.5t-60 20.5t-49.5 17v-136z" />
    <glyph glyph-name="T" unicode="T" horiz-adv-x="1198" 
d="M102 1401v135h994v-135h-424v-1401h-146v1401h-424z" />
    <glyph glyph-name="U" unicode="U" horiz-adv-x="1433" 
d="M174 481v1055h145v-1028q0 -395 398 -395q397 0 397 395v1028h146v-1055q0 -90 -21 -164.5t-54.5 -125.5t-80.5 -90t-95.5 -61.5t-104 -36.5t-99.5 -18.5t-88 -4.5t-88 4.5t-99.5 18.5t-104 36.5t-95.5 61.5t-80.5 90t-54.5 125.5t-21 164.5z" />
    <glyph glyph-name="V" unicode="V" horiz-adv-x="1372" 
d="M92 1536h160l434 -1325l434 1325h160l-543 -1556h-102z" />
    <glyph glyph-name="W" unicode="W" horiz-adv-x="1863" 
d="M92 1536l340 -1556h143l357 1341l356 -1341h144l340 1556h-158l-260 -1325l-344 1325h-156l-344 -1325l-260 1325h-158z" />
    <glyph glyph-name="X" unicode="X" horiz-adv-x="1351" 
d="M82 0l506 778l-496 758h178l406 -657l405 657h179l-496 -758l506 -778h-185l-409 674l-410 -674h-184z" />
    <glyph glyph-name="Y" unicode="Y" horiz-adv-x="1433" 
d="M92 1536h176l449 -772l448 772h176l-553 -901v-635h-143v635z" />
    <glyph glyph-name="Z" unicode="Z" horiz-adv-x="1310" 
d="M113 0v94l856 1307h-815v135h1013v-94l-856 -1307h887v-135h-1085z" />
    <glyph glyph-name="bracketleft" unicode="[" horiz-adv-x="532" 
d="M164 -422v2093h276v-135h-131v-1823h131v-135h-276z" />
    <glyph glyph-name="backslash" unicode="\" horiz-adv-x="860" 
d="M0 1671l711 -2093h149l-710 2093h-150z" />
    <glyph glyph-name="bracketright" unicode="]" horiz-adv-x="532" 
d="M92 -287v-135h277v2093h-277v-135h131v-1823h-131z" />
    <glyph glyph-name="asciicircum" unicode="^" 
d="M164 1024l342 512h135l342 -512h-129l-281 371l-280 -371h-129z" />
    <glyph glyph-name="underscore" unicode="_" horiz-adv-x="655" 
d="M0 -377h655v-135h-655v135z" />
    <glyph glyph-name="grave" unicode="`" 
d="M334 1282v133h282v-133h-282z" />
    <glyph glyph-name="a" unicode="a" horiz-adv-x="1064" 
d="M133 309q0 50 8.5 90t32 81t63 69.5t104.5 50t153 29.5l274 16v57q0 116 -52.5 166t-191.5 50q-153 0 -307 -52v123q127 55 307 55q112 0 189.5 -24t119.5 -71.5t60 -107.5t18 -141v-700h-80l-30 82q-138 -102 -305 -102q-97 0 -169 26.5t-113.5 74t-61 104.5t-19.5 124z
M279 309q0 -40 7.5 -71.5t29 -63.5t68.5 -50t116 -18q77 0 135.5 19.5t132.5 62.5v357l-285 -27q-63 -6 -105 -25t-62.5 -49.5t-28.5 -62t-8 -72.5z" />
    <glyph glyph-name="b" unicode="b" horiz-adv-x="1157" 
d="M164 0v1536h143v-575q128 83 287 83q96 0 170 -27.5t120.5 -74.5t76 -116t41.5 -145t12 -169t-12 -169t-41.5 -145t-76 -116t-120.5 -74.5t-170 -27.5q-158 0 -320 104l-30 -84h-80zM307 172q64 -34 128 -50t159 -16q51 0 92.5 12t70 32.5t49.5 52t33 64.5t19 76.5
t9.5 82t2.5 86.5t-2.5 86.5t-9.5 82t-19 76.5t-33 64.5t-49.5 52t-70 32.5t-92.5 12q-106 0 -176 -21q-64 -21 -111 -45v-680z" />
    <glyph glyph-name="c" unicode="c" horiz-adv-x="1003" 
d="M143 512q0 94 11.5 169.5t41 145t77.5 116t124.5 74t177.5 27.5q188 0 306 -51v-123q-142 48 -308 48q-54 0 -97 -12t-72.5 -32.5t-51 -52t-34 -64t-20 -76.5t-9.5 -82t-2 -87t2 -87t9.5 -82t20 -76.5t34 -64t51 -52t72.5 -32.5t97 -12q166 0 308 48v-123
q-118 -51 -306 -51q-101 0 -177.5 27.5t-124.5 74t-77.5 116t-41 145t-11.5 169.5z" />
    <glyph glyph-name="d" unicode="d" horiz-adv-x="1157" 
d="M143 512q0 -93 12 -169t41.5 -145t76 -116t120.5 -74.5t170 -27.5q158 0 320 104l30 -84h80v1536h-143v-575q-145 83 -287 83q-96 0 -170 -27.5t-120.5 -74.5t-76 -116t-41.5 -145t-12 -169zM287 512q0 48 2.5 86.5t9.5 82t19 76.5t33 64.5t49.5 52t70 32.5t92.5 12
q105 0 176 -21q78 -28 111 -45v-680q-68 -36 -131 -51t-156 -15q-51 0 -92.5 12t-70 32.5t-49.5 52t-33 64.5t-19 76.5t-9.5 82t-2.5 86.5z" />
    <glyph glyph-name="e" unicode="e" 
d="M143 512q0 94 11.5 169.5t40.5 145t76.5 116t124 74t177.5 27.5q73 0 131 -14.5t98.5 -39t70 -63.5t46.5 -81t27 -100t13.5 -111t3.5 -123v-66h-676q3 -59 10.5 -104.5t27 -91.5t50 -76t81 -49t117.5 -19q111 0 187 13t151 45v-123q-138 -61 -338 -61q-101 0 -177.5 27.5
t-124 74t-76.5 116t-40.5 145t-11.5 169.5zM287 563h532q0 41 -1 68t-4 63.5t-10.5 61t-19 52.5t-30 46t-43.5 33.5t-60 23t-78 7.5q-69 0 -120.5 -20t-81.5 -51.5t-49 -80t-26 -95.5t-9 -108z" />
    <glyph glyph-name="f" unicode="f" horiz-adv-x="819" 
d="M61 911v64l205 59v215q0 307 369 307q86 0 143 -14v-129q-70 17 -143 17q-107 0 -169.5 -43t-62.5 -138v-225h324v-113h-324v-911h-137v911h-205z" />
    <glyph glyph-name="g" unicode="g" 
d="M68 -215q0 173 211 262v2q-66 46 -66 135q0 77 78 140q-164 91 -164 335q0 385 399 385q86 0 164 -20h348v-78l-172 -49q60 -92 60 -238q0 -385 -400 -385q-72 0 -135 13q-39 -39 -39 -76q0 -38 19 -56.5t59 -23.5l348 -41q147 -15 214 -78.5t67 -195.5q0 -91 -43 -159.5
t-118 -109t-168.5 -60t-203.5 -19.5q-458 0 -458 317zM209 -215q0 -109 75 -150t242 -41q389 0 389 222q0 78 -36 113.5t-129 45.5l-299 35q-112 -30 -177 -82.5t-65 -142.5zM260 659q0 -46 4.5 -79t20.5 -69.5t43.5 -58.5t77.5 -36.5t120 -14.5t120 14.5t78 37t44 58
t20.5 69t4.5 79.5t-4.5 79.5t-20.5 69.5t-44 58.5t-78 37t-120 14.5t-120 -14.5t-77.5 -37t-43.5 -58.5t-20.5 -69.5t-4.5 -79.5z" />
    <glyph glyph-name="h" unicode="h" horiz-adv-x="1085" 
d="M164 0v1536h139v-575q128 83 281 83q348 0 348 -307v-737h-144v743q0 95 -51.5 135t-152.5 40q-95 0 -157.5 -16t-123.5 -50v-852h-139z" />
    <glyph glyph-name="i" unicode="i" horiz-adv-x="573" 
d="M164 1403q0 47 32.5 80t79.5 33t80 -33t33 -80t-33 -80t-80 -33t-79.5 33t-32.5 80zM207 205v819h139v-836q0 -53 19 -72.5t67 -19.5v-116q-114 0 -169.5 52.5t-55.5 172.5z" />
    <glyph glyph-name="j" unicode="j" horiz-adv-x="552" 
d="M-55 -412v-120q72 4 141.5 27.5t128.5 63.5t95 103.5t36 140.5v1221h-139v-1202q0 -56 -23 -100t-63 -70.5t-83.5 -41.5t-92.5 -22zM164 1403q0 47 32.5 80t79.5 33t80 -33t33 -80t-33 -80t-80 -33t-79.5 33t-32.5 80z" />
    <glyph glyph-name="k" unicode="k" horiz-adv-x="1064" 
d="M164 0v1536h139v-971l463 459h192l-440 -422l496 -602h-178l-404 520l-129 -123v-397h-139z" />
    <glyph glyph-name="l" unicode="l" horiz-adv-x="573" 
d="M207 205v1331h139v-1348q0 -53 19 -72.5t67 -19.5v-116q-114 0 -169.5 52.5t-55.5 172.5z" />
    <glyph glyph-name="m" unicode="m" horiz-adv-x="1669" 
d="M164 0h143v856q64 33 122.5 47.5t143.5 14.5q94 0 144.5 -40t50.5 -135v-743h143v743q0 57 -12 107q68 35 129 51.5t150 16.5q94 0 144 -40t50 -135v-743h144v737q0 153 -86 230t-252 77q-152 0 -318 -116q-79 116 -287 116q-157 0 -299 -104l-30 84h-80v-1024z" />
    <glyph glyph-name="n" unicode="n" horiz-adv-x="1085" 
d="M164 0h143v852q61 35 122 50.5t155 15.5q101 0 152.5 -40t51.5 -135v-743h144v737q0 307 -348 307q-169 0 -310 -106l-30 86h-80v-1024z" />
    <glyph glyph-name="o" unicode="o" horiz-adv-x="1146" 
d="M143 512q0 100 11 176.5t40 145.5t76.5 113.5t123.5 70.5t179 26t179.5 -26t124.5 -70.5t76.5 -113.5t39.5 -145.5t11 -176.5t-11 -176.5t-39.5 -145.5t-76.5 -113.5t-124.5 -70.5t-179.5 -26t-179 26t-123.5 70.5t-76.5 113.5t-40 145.5t-11 176.5zM287 512
q0 -57 1.5 -95.5t8 -85t18 -76.5t32.5 -61t51 -48.5t74 -28.5t101 -11q65 0 113.5 13t79.5 41.5t50.5 61t28.5 83.5t12 96t3 111t-3 111t-12 96t-28.5 83.5t-50.5 61t-79.5 41.5t-113.5 13q-57 0 -101 -11t-74 -28.5t-51 -48.5t-32.5 -61t-18 -76.5t-8 -85t-1.5 -95.5z" />
    <glyph glyph-name="p" unicode="p" horiz-adv-x="1157" 
d="M164 -512h143v575q128 -83 287 -83q96 0 170 27.5t120.5 74.5t76 116t41.5 145t12 169t-12 169t-41.5 145t-76 116t-120.5 74.5t-170 27.5q-158 0 -320 -104l-30 84h-80v-1536zM307 172v680q64 34 128 50t159 16q51 0 92.5 -12t70 -32.5t49.5 -52t33 -64.5t19 -76.5
t9.5 -82t2.5 -86.5t-2.5 -86.5t-9.5 -82t-19 -76.5t-33 -64.5t-49.5 -52t-70 -32.5t-92.5 -12q-106 0 -176 21q-64 21 -111 45z" />
    <glyph glyph-name="q" unicode="q" horiz-adv-x="1157" 
d="M143 512q0 93 12 169t41.5 145t76 116t120.5 74.5t170 27.5q179 0 320 -106l30 86h80v-1536h-143v575q-145 -83 -287 -83q-96 0 -170 27.5t-120.5 74.5t-76 116t-41.5 145t-12 169zM287 512q0 -48 2.5 -86.5t9.5 -82t19 -76.5t33 -64.5t49.5 -52t70 -32.5t92.5 -12
q105 0 176 21q47 12 111 45v680q-65 36 -128 51t-159 15q-51 0 -92.5 -12t-70 -32.5t-49.5 -52t-33 -64.5t-19 -76.5t-9.5 -82t-2.5 -86.5z" />
    <glyph glyph-name="r" unicode="r" horiz-adv-x="808" 
d="M164 0h143v852q117 66 297 66q70 0 123 -17v133q-65 10 -123 10q-189 0 -330 -106l-30 86h-80v-1024z" />
    <glyph glyph-name="s" unicode="s" horiz-adv-x="1003" 
d="M137 741q0 58 20 109t62.5 96t119.5 71.5t181 26.5q177 0 295 -51v-123q-142 48 -297 48q-141 0 -193.5 -46t-52.5 -131q0 -36 9 -60t34 -44t71.5 -31.5t119.5 -17.5q107 -10 178.5 -33t111 -61.5t55 -85t15.5 -113.5q0 -50 -12.5 -94t-43 -85t-76.5 -70.5t-117.5 -47.5
t-161.5 -18q-73 0 -164 15.5t-141 35.5v123q131 -48 307 -48q147 0 208.5 52t61.5 135q0 39 -8 65.5t-31 51t-70.5 39t-121.5 20.5q-108 10 -181 33.5t-110.5 60.5t-52.5 79t-15 99z" />
    <glyph glyph-name="t" unicode="t" horiz-adv-x="819" 
d="M61 911v64l205 59v277l144 41v-328h317v-113h-317v-659q6 -90 53 -125t143 -35q26 0 80 4v-110q-40 -6 -80 -6q-15 -1 -30 -1q-50 1 -94 11q-58 14 -106.5 44.5t-78 85.5t-31.5 128v663h-205z" />
    <glyph glyph-name="u" unicode="u" horiz-adv-x="1085" 
d="M154 287q0 -307 348 -307q168 0 309 106l31 -86h80v1024h-144v-858q-62 -35 -122 -50.5t-154 -15.5q-101 0 -153 39.5t-52 134.5v750h-143v-737z" />
    <glyph glyph-name="v" unicode="v" horiz-adv-x="1044" 
d="M72 1024h157l293 -840l293 840h158l-400 -1044h-102z" />
    <glyph glyph-name="w" unicode="w" horiz-adv-x="1495" 
d="M72 1024h153l193 -803l254 803h151l254 -803l193 803h153l-288 -1044h-107l-280 890l-281 -890h-107z" />
    <glyph glyph-name="x" unicode="x" horiz-adv-x="1024" 
d="M51 0l379 526l-358 498h170l270 -401l270 401h170l-358 -498l379 -526h-170l-291 430l-291 -430h-170z" />
    <glyph glyph-name="y" unicode="y" horiz-adv-x="1044" 
d="M72 1024h164l286 -840l287 840h164l-590 -1536h-154l232 539z" />
    <glyph glyph-name="z" unicode="z" horiz-adv-x="983" 
d="M92 0v92l594 805h-563v127h747v-92l-594 -805h615v-127h-799z" />
    <glyph glyph-name="braceleft" unicode="{" horiz-adv-x="491" 
d="M68 557v135h20q46 0 67 20t19 60l-37 676q-6 114 56.5 168.5t175.5 54.5h30v-135h-30q-46 0 -67 -20.5t-19 -59.5l36 -676q3 -91 -61 -155q64 -64 61 -156l-36 -676q-2 -39 19 -59.5t67 -20.5h30v-135h-30q-113 0 -175.5 54.5t-56.5 168.5l37 676q3 74 -76 80h-30z" />
    <glyph glyph-name="bar" unicode="|" horiz-adv-x="563" 
d="M209 -422v2093h145v-2093h-145z" />
    <glyph glyph-name="braceright" unicode="}" horiz-adv-x="491" 
d="M92 -287v-135h31q113 0 175 54.5t56 168.5l-37 676q-3 74 76 80h31v135h-21q-46 0 -67 20t-19 60l37 676q6 114 -56 168.5t-175 54.5h-31v-135h31q46 0 67 -20.5t19 -59.5l-37 -676q-1 -46 18.5 -89.5t49.5 -65.5q-30 -22 -49.5 -66.5t-18.5 -89.5l37 -676
q2 -39 -19 -59.5t-67 -20.5h-31z" />
    <glyph glyph-name="asciitilde" unicode="~" horiz-adv-x="757" 
d="M72 694v107q77 -56 153 -56q28 0 55 13.5t50 33t48.5 39t62 33t79.5 13.5q48 0 92.5 -22.5t73.5 -51.5v-107q-77 56 -154 56q-28 0 -55 -13.5t-50 -33t-48.5 -38.5t-61.5 -32.5t-79 -13.5q-48 0 -92.5 22t-73.5 51z" />
    <glyph glyph-name="uni0080" horiz-adv-x="1372" 
d="M92 0h160l141 430h586l141 -430h160l-543 1556h-102zM369 1915q0 -47 32.5 -80t79.5 -33t80 33t33 80t-33 80t-80 33t-79.5 -33t-32.5 -80zM434 557l252 768l252 -768h-504zM778 1915q0 47 33 80t80 33t80 -33t33 -80t-33 -80t-80 -33t-80 33t-33 80z" />
    <glyph glyph-name="uni0081" horiz-adv-x="1372" 
d="M92 0h160l141 430h586l141 -430h160l-543 1556h-102zM434 557l252 768l252 -768h-504zM483 1868q0 102 53.5 151t149.5 49q95 0 148 -49t53 -151q0 -101 -53.5 -150t-147.5 -49q-96 0 -149.5 49t-53.5 150zM586 1868q0 -53 25 -76t75 -23q48 0 73 23t25 76q0 55 -25 77.5
t-73 22.5q-50 0 -75 -22.5t-25 -77.5z" />
    <glyph glyph-name="uni0082" horiz-adv-x="1269" 
d="M133 768q0 136 18.5 250t62.5 215.5t112 171.5t172.5 110.5t238.5 40.5q239 0 400 -71v-139q-107 43 -196.5 61t-203.5 18q-98 0 -175.5 -33t-129 -91t-85 -142t-48 -180t-14.5 -211t14.5 -211t48 -180t85 -142t129 -91t175.5 -33q114 0 203.5 18t196.5 61v-139
q-150 -66 -375 -71q-57 -81 18 -125q47 -26 65.5 -60.5t9 -67.5t-25.5 -59t-38 -47h-156q29 25 49.5 56t23.5 60.5t-24 45.5q-35 19 -49 45.5t-8.5 55.5t17 53t28.5 47q-119 9 -212 54t-154 115t-100.5 168.5t-56 208t-16.5 238.5z" />
    <glyph glyph-name="uni0083" horiz-adv-x="1228" 
d="M184 0v1536h891v-135h-745v-537h674v-135h-674v-594h745v-135h-891zM600 1690h62l296 358h-194z" />
    <glyph glyph-name="uni0084" horiz-adv-x="1433" 
d="M184 0v1536h105l825 -1245l-4 1245h139v-1536h-104l-826 1245l5 -1245h-140zM410 1815v106q76 -55 153 -55q34 0 68.5 20.5t60 45t70 45t96.5 20.5q48 0 92.5 -22.5t73.5 -51.5v-106q-76 55 -154 55q-34 0 -68.5 -20.5t-60 -45t-70 -45t-96.5 -20.5q-48 0 -91.5 22
t-73.5 52z" />
    <glyph glyph-name="uni0085" unicode="&#x85;" horiz-adv-x="1454" 
d="M154 768q0 94 5 170.5t20.5 160.5t41.5 148t70 124.5t103 99.5t143.5 62t189.5 23q106 0 191 -23.5t144 -62t102.5 -99t69.5 -124.5t41 -148t20 -160.5t5 -170.5t-5 -170.5t-20 -160.5t-41 -148t-69.5 -124.5t-102.5 -99t-144 -62t-191 -23.5q-105 0 -189.5 23t-143.5 62
t-103 99.5t-70 124.5t-41.5 148t-20.5 160.5t-5 170.5zM305 768q0 -83 4 -149t15 -136.5t30 -123t51 -101.5t76 -79.5t106 -49t140 -18.5t140 18.5t106 49t76 79.5t51 101.5t30 123t15 136.5t4 149t-4 149t-15 136.5t-30 123t-51 101.5t-76 79.5t-106 49t-140 18.5
t-140 -18.5t-106 -49t-76 -79.5t-51 -101.5t-30 -123t-15 -136.5t-4 -149zM410 1915q0 -47 32.5 -80t79.5 -33t80 33t33 80t-33 80t-80 33t-79.5 -33t-32.5 -80zM819 1915q0 47 33 80t80 33t79.5 -33t32.5 -80t-32.5 -80t-79.5 -33t-80 33t-33 80z" />
    <glyph glyph-name="uni0086" horiz-adv-x="1433" 
d="M174 481v1055h145v-1028q0 -395 398 -395q397 0 397 395v1028h146v-1055q0 -90 -21 -164.5t-54.5 -125.5t-80.5 -90t-95.5 -61.5t-104 -36.5t-99.5 -18.5t-88 -4.5t-88 4.5t-99.5 18.5t-104 36.5t-95.5 61.5t-80.5 90t-54.5 125.5t-21 164.5zM399 1915q0 -47 33 -80
t80 -33t80 33t33 80t-33 80t-80 33t-80 -33t-33 -80zM809 1915q0 47 33 80t80 33t79.5 -33t32.5 -80t-32.5 -80t-79.5 -33t-80 33t-33 80z" />
    <glyph glyph-name="uni0087" horiz-adv-x="1064" 
d="M133 309q0 50 8.5 90t32 81t63 69.5t104.5 50t153 29.5l274 16v57q0 116 -52.5 166t-191.5 50q-153 0 -307 -52v123q127 55 307 55q112 0 189.5 -24t119.5 -71.5t60 -107.5t18 -141v-700h-80l-30 82q-138 -102 -305 -102q-97 0 -169 26.5t-113.5 74t-61 104.5t-19.5 124z
M279 309q0 -40 7.5 -71.5t29 -63.5t68.5 -50t116 -18q77 0 135.5 19.5t132.5 62.5v357l-285 -27q-63 -6 -105 -25t-62.5 -49.5t-28.5 -62t-8 -72.5zM494 1178h61l297 358h-195z" />
    <glyph glyph-name="uni0088" horiz-adv-x="1064" 
d="M133 309q0 50 8.5 90t32 81t63 69.5t104.5 50t153 29.5l274 16v57q0 116 -52.5 166t-191.5 50q-153 0 -307 -52v123q127 55 307 55q112 0 189.5 -24t119.5 -71.5t60 -107.5t18 -141v-700h-80l-30 82q-138 -102 -305 -102q-97 0 -169 26.5t-113.5 74t-61 104.5t-19.5 124z
M197 1536h194l164 -358h-61zM279 309q0 -40 7.5 -71.5t29 -63.5t68.5 -50t116 -18q77 0 135.5 19.5t132.5 62.5v357l-285 -27q-63 -6 -105 -25t-62.5 -49.5t-28.5 -62t-8 -72.5z" />
    <glyph glyph-name="uni0089" horiz-adv-x="1064" 
d="M133 309q0 50 8.5 90t32 81t63 69.5t104.5 50t153 29.5l274 16v57q0 116 -52.5 166t-191.5 50q-153 0 -307 -52v123q127 55 307 55q112 0 189.5 -24t119.5 -71.5t60 -107.5t18 -141v-700h-80l-30 82q-138 -102 -305 -102q-97 0 -169 26.5t-113.5 74t-61 104.5t-19.5 124z
M186 1178l256 358h164l256 -358h-61l-277 237l-276 -237h-62zM279 309q0 -40 7.5 -71.5t29 -63.5t68.5 -50t116 -18q77 0 135.5 19.5t132.5 62.5v357l-285 -27q-63 -6 -105 -25t-62.5 -49.5t-28.5 -62t-8 -72.5z" />
    <glyph glyph-name="uni008A" horiz-adv-x="1064" 
d="M133 309q0 50 8.5 90t32 81t63 69.5t104.5 50t153 29.5l274 16v57q0 116 -52.5 166t-191.5 50q-153 0 -307 -52v123q127 55 307 55q112 0 189.5 -24t119.5 -71.5t60 -107.5t18 -141v-700h-80l-30 82q-138 -102 -305 -102q-97 0 -169 26.5t-113.5 74t-61 104.5t-19.5 124z
M207 1403q0 -47 32.5 -80t79.5 -33t80 33t33 80t-33 80t-80 33t-79.5 -33t-32.5 -80zM279 309q0 -40 7.5 -71.5t29 -63.5t68.5 -50t116 -18q77 0 135.5 19.5t132.5 62.5v357l-285 -27q-63 -6 -105 -25t-62.5 -49.5t-28.5 -62t-8 -72.5zM616 1403q0 47 33 80t80 33t80 -33
t33 -80t-33 -80t-80 -33t-80 33t-33 80z" />
    <glyph glyph-name="uni008B" horiz-adv-x="1064" 
d="M133 309q0 50 8.5 90t32 81t63 69.5t104.5 50t153 29.5l274 16v57q0 116 -52.5 166t-191.5 50q-153 0 -307 -52v123q127 55 307 55q112 0 189.5 -24t119.5 -71.5t60 -107.5t18 -141v-700h-80l-30 82q-138 -102 -305 -102q-97 0 -169 26.5t-113.5 74t-61 104.5t-19.5 124z
M217 1303v106q76 -55 154 -55q34 0 68.5 20.5t60 45t70 45t96.5 20.5q48 0 91.5 -22t73.5 -52v-106q-76 55 -153 55q-34 0 -68.5 -20.5t-60 -45t-70 -45t-96.5 -20.5q-48 0 -92.5 22.5t-73.5 51.5zM279 309q0 -40 7.5 -71.5t29 -63.5t68.5 -50t116 -18q77 0 135.5 19.5
t132.5 62.5v357l-285 -27q-63 -6 -105 -25t-62.5 -49.5t-28.5 -62t-8 -72.5z" />
    <glyph glyph-name="uni008C" horiz-adv-x="1064" 
d="M133 309q0 50 8.5 90t32 81t63 69.5t104.5 50t153 29.5l274 16v57q0 116 -52.5 166t-191.5 50q-153 0 -307 -52v123q127 55 307 55q112 0 189.5 -24t119.5 -71.5t60 -107.5t18 -141v-700h-80l-30 82q-138 -102 -305 -102q-97 0 -169 26.5t-113.5 74t-61 104.5t-19.5 124z
M279 309q0 -40 7.5 -71.5t29 -63.5t68.5 -50t116 -18q77 0 135.5 19.5t132.5 62.5v357l-285 -27q-63 -6 -105 -25t-62.5 -49.5t-28.5 -62t-8 -72.5zM322 1356q0 102 53 151t149 49q95 0 148 -49t53 -151q0 -101 -53.5 -150t-147.5 -49q-96 0 -149 49t-53 150zM424 1356
q0 -53 25 -76t75 -23q48 0 73.5 23t25.5 76q0 54 -25 77t-74 23q-50 0 -75 -22.5t-25 -77.5z" />
    <glyph glyph-name="uni008D" horiz-adv-x="1024" 
d="M143 512q0 94 11.5 169.5t41 145t77.5 116t124.5 74t177.5 27.5q188 0 306 -51v-123q-142 48 -308 48q-54 0 -97 -12t-72.5 -32.5t-51 -52t-34 -64t-20 -76.5t-9.5 -82t-2 -87t2 -87t9.5 -82t20 -76.5t34 -64t51 -52t72.5 -32.5t97 -12q166 0 308 48v-123
q-114 -47 -281 -51q-57 -81 18 -125q47 -26 65.5 -60.5t9 -67.5t-25.5 -59t-38 -47h-156q29 25 49.5 56t23.5 60.5t-24 45.5q-35 19 -49 45.5t-8.5 55.5t17 53t28.5 47q-106 10 -180 54t-114 118t-56.5 159.5t-16.5 196.5z" />
    <glyph glyph-name="uni008E" 
d="M143 512q0 94 11.5 169.5t40.5 145t76.5 116t124 74t177.5 27.5q73 0 131 -14.5t98.5 -39t70 -63.5t46.5 -81t27 -100t13.5 -111t3.5 -123v-66h-676q3 -59 10.5 -104.5t27 -91.5t50 -76t81 -49t117.5 -19q111 0 187 13t151 45v-123q-138 -61 -338 -61q-101 0 -177.5 27.5
t-124 74t-76.5 116t-40.5 145t-11.5 169.5zM287 563h532q0 41 -1 68t-4 63.5t-10.5 61t-19 52.5t-30 46t-43.5 33.5t-60 23t-78 7.5q-69 0 -120.5 -20t-81.5 -51.5t-49 -80t-26 -95.5t-9 -108zM543 1178h61l297 358h-194z" />
    <glyph glyph-name="uni008F" 
d="M143 512q0 94 11.5 169.5t40.5 145t76.5 116t124 74t177.5 27.5q73 0 131 -14.5t98.5 -39t70 -63.5t46.5 -81t27 -100t13.5 -111t3.5 -123v-66h-676q3 -59 10.5 -104.5t27 -91.5t50 -76t81 -49t117.5 -19q111 0 187 13t151 45v-123q-138 -61 -338 -61q-101 0 -177.5 27.5
t-124 74t-76.5 116t-40.5 145t-11.5 169.5zM246 1536h194l164 -358h-61zM287 563h532q0 41 -1 68t-4 63.5t-10.5 61t-19 52.5t-30 46t-43.5 33.5t-60 23t-78 7.5q-69 0 -120.5 -20t-81.5 -51.5t-49 -80t-26 -95.5t-9 -108z" />
    <glyph glyph-name="uni0090" 
d="M143 512q0 94 11.5 169.5t40.5 145t76.5 116t124 74t177.5 27.5q73 0 131 -14.5t98.5 -39t70 -63.5t46.5 -81t27 -100t13.5 -111t3.5 -123v-66h-676q3 -59 10.5 -104.5t27 -91.5t50 -76t81 -49t117.5 -19q111 0 187 13t151 45v-123q-138 -61 -338 -61q-101 0 -177.5 27.5
t-124 74t-76.5 116t-40.5 145t-11.5 169.5zM236 1178l256 358h163l256 -358h-61l-277 237l-276 -237h-61zM287 563h532q0 41 -1 68t-4 63.5t-10.5 61t-19 52.5t-30 46t-43.5 33.5t-60 23t-78 7.5q-69 0 -120.5 -20t-81.5 -51.5t-49 -80t-26 -95.5t-9 -108z" />
    <glyph glyph-name="uni0091" 
d="M143 512q0 94 11.5 169.5t40.5 145t76.5 116t124 74t177.5 27.5q73 0 131 -14.5t98.5 -39t70 -63.5t46.5 -81t27 -100t13.5 -111t3.5 -123v-66h-676q3 -59 10.5 -104.5t27 -91.5t50 -76t81 -49t117.5 -19q111 0 187 13t151 45v-123q-138 -61 -338 -61q-101 0 -177.5 27.5
t-124 74t-76.5 116t-40.5 145t-11.5 169.5zM256 1403q0 -47 33 -80t80 -33t79.5 33t32.5 80t-32.5 80t-79.5 33t-80 -33t-33 -80zM287 563h532q0 41 -1 68t-4 63.5t-10.5 61t-19 52.5t-30 46t-43.5 33.5t-60 23t-78 7.5q-69 0 -120.5 -20t-81.5 -51.5t-49 -80t-26 -95.5
t-9 -108zM666 1403q0 47 32.5 80t79.5 33t80 -33t33 -80t-33 -80t-80 -33t-79.5 33t-32.5 80z" />
    <glyph glyph-name="uni0092" horiz-adv-x="573" 
d="M207 205v819h139v-836q0 -53 19 -72.5t67 -19.5v-116q-114 0 -169.5 52.5t-55.5 172.5zM246 1178h61l297 358h-194z" />
    <glyph glyph-name="uni0093" horiz-adv-x="573" 
d="M-51 1536h194l164 -358h-61zM207 205v819h139v-836q0 -53 19 -72.5t67 -19.5v-116q-114 0 -169.5 52.5t-55.5 172.5z" />
    <glyph glyph-name="uni0094" horiz-adv-x="573" 
d="M-61 1178l256 358h163l256 -358h-61l-277 237l-276 -237h-61zM207 205v819h139v-836q0 -53 19 -72.5t67 -19.5v-116q-114 0 -169.5 52.5t-55.5 172.5z" />
    <glyph glyph-name="uni0095" horiz-adv-x="573" 
d="M-41 1403q0 -47 33 -80t80 -33t79.5 33t32.5 80t-32.5 80t-79.5 33t-80 -33t-33 -80zM207 205v819h139v-836q0 -53 19 -72.5t67 -19.5v-116q-114 0 -169.5 52.5t-55.5 172.5zM369 1403q0 47 32.5 80t79.5 33t80 -33t33 -80t-33 -80t-80 -33t-79.5 33t-32.5 80z" />
    <glyph glyph-name="uni0096" horiz-adv-x="1085" 
d="M164 0h143v852q61 35 122 50.5t155 15.5q101 0 152.5 -40t51.5 -135v-743h144v737q0 307 -348 307q-169 0 -310 -106l-30 86h-80v-1024zM242 1303v106q76 -55 153 -55q34 0 68.5 20.5t60 45t70 45t96.5 20.5q48 0 92.5 -22.5t73.5 -51.5v-106q-76 55 -154 55
q-28 0 -55 -13.5t-50 -33t-48.5 -38.5t-61.5 -32.5t-79 -13.5q-48 0 -92.5 22.5t-73.5 51.5z" />
    <glyph glyph-name="uni0097" horiz-adv-x="1146" 
d="M143 512q0 100 11 176.5t40 145.5t76.5 113.5t123.5 70.5t179 26t179.5 -26t124.5 -70.5t76.5 -113.5t39.5 -145.5t11 -176.5t-11 -176.5t-39.5 -145.5t-76.5 -113.5t-124.5 -70.5t-179.5 -26t-179 26t-123.5 70.5t-76.5 113.5t-40 145.5t-11 176.5zM287 512
q0 -57 1.5 -95.5t8 -85t18 -76.5t32.5 -61t51 -48.5t74 -28.5t101 -11q65 0 113.5 13t79.5 41.5t50.5 61t28.5 83.5t12 96t3 111t-3 111t-12 96t-28.5 83.5t-50.5 61t-79.5 41.5t-113.5 13q-57 0 -101 -11t-74 -28.5t-51 -48.5t-32.5 -61t-18 -76.5t-8 -85t-1.5 -95.5z
M543 1178h61l297 358h-194z" />
    <glyph glyph-name="uni0098" horiz-adv-x="1146" 
d="M143 512q0 100 11 176.5t40 145.5t76.5 113.5t123.5 70.5t179 26t179.5 -26t124.5 -70.5t76.5 -113.5t39.5 -145.5t11 -176.5t-11 -176.5t-39.5 -145.5t-76.5 -113.5t-124.5 -70.5t-179.5 -26t-179 26t-123.5 70.5t-76.5 113.5t-40 145.5t-11 176.5zM246 1536h194
l164 -358h-61zM287 512q0 -57 1.5 -95.5t8 -85t18 -76.5t32.5 -61t51 -48.5t74 -28.5t101 -11q65 0 113.5 13t79.5 41.5t50.5 61t28.5 83.5t12 96t3 111t-3 111t-12 96t-28.5 83.5t-50.5 61t-79.5 41.5t-113.5 13q-57 0 -101 -11t-74 -28.5t-51 -48.5t-32.5 -61t-18 -76.5
t-8 -85t-1.5 -95.5z" />
    <glyph glyph-name="uni0099" horiz-adv-x="1146" 
d="M143 512q0 100 11 176.5t40 145.5t76.5 113.5t123.5 70.5t179 26t179.5 -26t124.5 -70.5t76.5 -113.5t39.5 -145.5t11 -176.5t-11 -176.5t-39.5 -145.5t-76.5 -113.5t-124.5 -70.5t-179.5 -26t-179 26t-123.5 70.5t-76.5 113.5t-40 145.5t-11 176.5zM236 1178l256 358
h163l256 -358h-61l-277 237l-276 -237h-61zM287 512q0 -57 1.5 -95.5t8 -85t18 -76.5t32.5 -61t51 -48.5t74 -28.5t101 -11q65 0 113.5 13t79.5 41.5t50.5 61t28.5 83.5t12 96t3 111t-3 111t-12 96t-28.5 83.5t-50.5 61t-79.5 41.5t-113.5 13q-57 0 -101 -11t-74 -28.5
t-51 -48.5t-32.5 -61t-18 -76.5t-8 -85t-1.5 -95.5z" />
    <glyph glyph-name="uni009A" horiz-adv-x="1146" 
d="M143 512q0 100 11 176.5t40 145.5t76.5 113.5t123.5 70.5t179 26t179.5 -26t124.5 -70.5t76.5 -113.5t39.5 -145.5t11 -176.5t-11 -176.5t-39.5 -145.5t-76.5 -113.5t-124.5 -70.5t-179.5 -26t-179 26t-123.5 70.5t-76.5 113.5t-40 145.5t-11 176.5zM256 1403
q0 -47 33 -80t80 -33t79.5 33t32.5 80t-32.5 80t-79.5 33t-80 -33t-33 -80zM287 512q0 -57 1.5 -95.5t8 -85t18 -76.5t32.5 -61t51 -48.5t74 -28.5t101 -11q65 0 113.5 13t79.5 41.5t50.5 61t28.5 83.5t12 96t3 111t-3 111t-12 96t-28.5 83.5t-50.5 61t-79.5 41.5t-113.5 13
q-57 0 -101 -11t-74 -28.5t-51 -48.5t-32.5 -61t-18 -76.5t-8 -85t-1.5 -95.5zM666 1403q0 47 32.5 80t79.5 33t80 -33t33 -80t-33 -80t-80 -33t-79.5 33t-32.5 80z" />
    <glyph glyph-name="uni009B" horiz-adv-x="1146" 
d="M143 512q0 100 11 176.5t40 145.5t76.5 113.5t123.5 70.5t179 26t179.5 -26t124.5 -70.5t76.5 -113.5t39.5 -145.5t11 -176.5t-11 -176.5t-39.5 -145.5t-76.5 -113.5t-124.5 -70.5t-179.5 -26t-179 26t-123.5 70.5t-76.5 113.5t-40 145.5t-11 176.5zM266 1303v106
q76 -55 154 -55q34 0 68.5 20.5t60 45t70 45t96.5 20.5q48 0 92.5 -22.5t73.5 -51.5v-106q-76 55 -154 55q-34 0 -68.5 -20.5t-60 -45t-70 -45t-96.5 -20.5q-48 0 -92.5 22.5t-73.5 51.5zM287 512q0 -57 1.5 -95.5t8 -85t18 -76.5t32.5 -61t51 -48.5t74 -28.5t101 -11
q65 0 113.5 13t79.5 41.5t50.5 61t28.5 83.5t12 96t3 111t-3 111t-12 96t-28.5 83.5t-50.5 61t-79.5 41.5t-113.5 13q-57 0 -101 -11t-74 -28.5t-51 -48.5t-32.5 -61t-18 -76.5t-8 -85t-1.5 -95.5z" />
    <glyph glyph-name="uni009C" horiz-adv-x="1085" 
d="M154 287q0 -307 348 -307q168 0 309 106l31 -86h80v1024h-144v-858q-62 -35 -122 -50.5t-154 -15.5q-101 0 -153 39.5t-52 134.5v750h-143v-737zM508 1178h61l297 358h-194z" />
    <glyph glyph-name="uni009D" horiz-adv-x="1085" 
d="M154 287q0 -307 348 -307q168 0 309 106l31 -86h80v1024h-144v-858q-62 -35 -122 -50.5t-154 -15.5q-101 0 -153 39.5t-52 134.5v750h-143v-737zM211 1536h195l163 -358h-61z" />
    <glyph glyph-name="uni009E" horiz-adv-x="1085" 
d="M154 287q0 -307 348 -307q168 0 309 106l31 -86h80v1024h-144v-858q-62 -35 -122 -50.5t-154 -15.5q-101 0 -153 39.5t-52 134.5v750h-143v-737zM201 1178l256 358h164l256 -358h-62l-276 237l-277 -237h-61z" />
    <glyph glyph-name="uni009F" horiz-adv-x="1085" 
d="M154 287q0 -307 348 -307q168 0 309 106l31 -86h80v1024h-144v-858q-62 -35 -122 -50.5t-154 -15.5q-101 0 -153 39.5t-52 134.5v750h-143v-737zM221 1403q0 -47 33 -80t80 -33t79.5 33t32.5 80t-32.5 80t-79.5 33t-80 -33t-33 -80zM631 1403q0 47 32.5 80t79.5 33
t80 -33t33 -80t-33 -80t-80 -33t-79.5 33t-32.5 80z" />
    <glyph glyph-name="uni00A0" unicode="&#xa0;" horiz-adv-x="788" 
d="M47 1108l289 41v78l-289 41v-160zM293 616l63 512h78l64 -512h-205zM315 1536h160l-41 -289h-78zM455 1149v78l288 41v-160z" />
    <glyph glyph-name="exclamdown" unicode="&#xa1;" horiz-adv-x="749" 
d="M92 1280q0 -77 24 -133t66 -86t89.5 -43.5t103.5 -13.5t103.5 13.5t89 43.5t65.5 86t24 133q0 78 -24 134t-65.5 86t-89 43t-103.5 13t-103.5 -13t-89.5 -43t-66 -86t-24 -134zM213 1280q0 164 162 164t162 -164t-162 -164t-162 164z" />
    <glyph glyph-name="cent" unicode="&#xa2;" horiz-adv-x="1003" 
d="M143 512q0 94 11.5 169.5t41 145t77.5 116t124.5 74t177.5 27.5l80 236h154l-94 -246q83 -8 166 -41v-123q-142 48 -308 48q-54 0 -97 -12t-72.5 -32.5t-51 -52t-34 -64t-20 -76.5t-9.5 -82t-2 -87t2 -87t9.5 -82t20 -76.5t34 -64t51 -52t72.5 -32.5t97 -12q166 0 308 48
v-123q-118 -51 -306 -51q-45 0 -65 2l-80 -238h-154l103 268q-67 28 -114 77t-73 116.5t-37.5 141.5t-11.5 165z" />
    <glyph glyph-name="sterling" unicode="&#xa3;" horiz-adv-x="1116" 
d="M63 0v125h144v338h-144v125h144v112q0 81 20 141t66 107t127.5 71.5t197.5 24.5q197 0 324 -55v-123q-154 52 -324 52q-146 0 -207 -51t-61 -165v-114h449v-125h-449v-338h633v-125h-920z" />
    <glyph glyph-name="currency" unicode="&#xa4;" horiz-adv-x="1329" 
d="M111 559q0 -98 20 -161t74.5 -110t140.5 -75.5t227 -52.5q176 -33 235 -55q102 -40 129 -124q13 -39 13 -92q0 -52 -9.5 -93t-34.5 -79t-66 -63t-107 -40t-155 -15q-116 0 -207.5 17.5t-194.5 61.5v-139q153 -71 399 -71q104 0 187.5 18.5t139 51t95 73t60.5 89.5t30 94
t9 93q0 144 -66 228q100 61 144.5 155t44.5 195q0 98 -20.5 161t-75 110t-140.5 75.5t-227 52.5q-176 33 -235 55q-102 40 -129 124q-13 39 -13 92q0 52 9.5 93t35 79t66.5 63t107 40t155 15q116 0 207 -17.5t194 -61.5v139q-153 71 -399 71q-104 0 -187.5 -18.5t-139 -51
t-95 -73t-60.5 -89.5t-30 -94t-9 -93q0 -151 66 -228q-100 -61 -144 -155t-44 -195zM256 557q0 197 160 264q93 -50 317 -88q165 -30 212 -48q84 -32 111 -101q17 -45 17 -117q0 -197 -162 -264q-86 46 -315 88q-165 30 -212 48q-84 32 -111 101q-17 46 -17 117z" />
    <glyph glyph-name="yen" unicode="&#xa5;" horiz-adv-x="819" 
d="M133 768q0 115 80.5 195.5t196.5 80.5t196 -80t80 -196t-80 -196t-196 -80t-196.5 80.5t-80.5 195.5z" />
    <glyph glyph-name="brokenbar" unicode="&#xa6;" horiz-adv-x="1269" 
d="M102 1075q0 -75 16.5 -140.5t54.5 -125t96 -102.5t146.5 -68t200.5 -25h33v-614h146v614h145v-614h145v1536h-469q-112 0 -200.5 -25t-146.5 -68t-96 -102.5t-54.5 -125t-16.5 -140.5zM264 1075q0 49 7.5 91t30.5 87t59.5 76t100 51.5t146.5 20.5h41v-651h-41
q-83 0 -146.5 20t-100 51.5t-59.5 76t-30.5 86.5t-7.5 91zM795 750v651h145v-651h-145z" />
    <glyph glyph-name="section" unicode="&#xa7;" horiz-adv-x="1392" 
d="M203 0h137v1219q0 94 80 152.5t233 58.5t233.5 -58.5t80.5 -152.5q0 -37 -5 -62.5t-20 -53.5t-47.5 -48t-83.5 -33q-163 -40 -222 -101.5t-59 -179.5q0 -57 15 -99t52.5 -79t110.5 -60.5t181 -33.5q74 -6 121.5 -20.5t70.5 -39t31 -51t8 -65.5q0 -83 -61.5 -135
t-208.5 -52q-176 0 -307 48v-123q50 -20 141 -35.5t164 -15.5q112 0 195 26.5t128.5 72.5t67 99.5t21.5 116.5q0 89 -29 144.5t-109 94t-223 54.5q-135 15 -184 49t-49 104t38.5 103t137.5 59q146 37 204 109.5t60 204.5q2 153 -113 246t-340 93q-224 0 -338 -93t-112 -246
v-1217z" />
    <glyph glyph-name="dieresis" unicode="&#xa8;" horiz-adv-x="704" 
d="M72 1280q0 -82 22 -138.5t63 -85.5t87.5 -40.5t107.5 -11.5t108 11.5t88 40.5t63 85.5t22 138.5q0 83 -22 139.5t-63 85t-87.5 40t-108.5 11.5t-108 -11.5t-87 -40t-63 -85t-22 -139.5zM143 1280q0 65 15 108.5t45 65t64.5 29.5t84.5 8t84.5 -8t64.5 -29.5t45 -65
t15 -108.5t-15 -108.5t-45 -65t-64.5 -29.5t-84.5 -8t-84.5 8t-64.5 29.5t-45 65t-15 108.5zM236 1133v294h131q102 0 102 -94q0 -65 -43 -84l66 -116h-74l-60 104h-57v-104h-65zM301 1300h61q23 0 30 8.5t7 24.5t-7 24.5t-30 8.5h-61v-66z" />
    <glyph glyph-name="copyright" unicode="&#xa9;" horiz-adv-x="1392" 
d="M143 512q0 -107 19.5 -191.5t57 -141.5t85.5 -97t111.5 -61.5t128 -31t141.5 -9.5q94 0 169 13t147 48.5t120.5 93.5t77.5 153.5t29 223.5t-29.5 224t-77.5 154t-120 93.5t-147 48t-169 12.5t-169 -12.5t-147 -48t-120 -93.5t-77.5 -154t-29.5 -224zM281 512
q0 102 20 175.5t53.5 117.5t87.5 70t110.5 34.5t133.5 8.5t133.5 -8.5t110.5 -34.5t87.5 -70t54 -117.5t20.5 -175.5t-20.5 -175.5t-54 -117.5t-87.5 -70t-110.5 -34.5t-133.5 -8.5t-133.5 8.5t-110.5 34.5t-87.5 70t-53.5 117.5t-20 175.5zM406 512q0 166 70.5 237.5
t213.5 71.5q96 0 182 -22v-125q-90 24 -182 24q-85 0 -119 -38t-34 -148t34 -148t119 -38q92 0 182 24v-125q-86 -22 -182 -22q-143 0 -213.5 71.5t-70.5 237.5z" />
    <glyph glyph-name="ordfeminine" unicode="&#xaa;" horiz-adv-x="1177" 
d="M31 1475v61h413v-61h-170v-451h-73v451h-170zM553 1024h68l-5 420l175 -354h59l174 354l-4 -420h65v512h-86l-180 -373l-178 373h-88v-512z" />
    <glyph glyph-name="guillemotleft" unicode="&#xab;" 
d="M586 1178h61l297 358h-194z" />
    <glyph glyph-name="logicalnot" unicode="&#xac;" 
d="M256 1403q0 -47 33 -80t80 -33t79.5 33t32.5 80t-32.5 80t-79.5 33t-80 -33t-33 -80zM666 1403q0 47 32.5 80t79.5 33t80 -33t33 -80t-33 -80t-80 -33t-79.5 33t-32.5 80z" />
    <glyph glyph-name="uni00AD" unicode="&#xad;" horiz-adv-x="1863" 
d="M164 0v1536h1536v-1536h-1536z" />
    <glyph glyph-name="registered" unicode="&#xae;" horiz-adv-x="2088" 
d="M25 0l1007 1536h924v-135h-746v-537h674v-135h-674v-594h746v-135h-891v729h-403l-467 -729h-170zM748 864h317v496z" />
    <glyph glyph-name="macron" unicode="&#xaf;" horiz-adv-x="1413" 
d="M133 768q0 94 5.5 170.5t21 160.5t41.5 148.5t69.5 124t103 99t144 62.5t189.5 23q200 0 333 -86l39 66h160l-96 -162q79 -105 108 -256t29 -350q0 -94 -5 -170.5t-20 -160.5t-41 -148t-69.5 -124.5t-102.5 -99t-144 -62t-191 -23.5q-206 0 -334 86l-39 -66h-160l96 164
q-79 103 -108 254t-29 350zM285 768q0 -315 69 -461l613 1039q-98 79 -260 79q-78 0 -140 -18.5t-106 -49t-76 -79.5t-51 -101.5t-30 -123t-15 -136.5t-4 -149zM444 190q94 -79 263 -79q78 0 140 18.5t105.5 49t75.5 79.5t51 101.5t30.5 123t15 136.5t3.5 149q0 315 -71 461
z" />
    <glyph glyph-name="degree" unicode="&#xb0;" horiz-adv-x="1177" 
d="M41 1395q0 155 213 155q102 0 162 -24v-60q-75 23 -164 23q-80 0 -113 -22t-33 -72q0 -37 32 -53.5t108 -22.5q107 -10 151.5 -45t44.5 -105q0 -72 -53 -115.5t-170 -43.5q-38 0 -90.5 7.5t-77.5 16.5v60q76 -23 170 -23q82 0 118 24t36 72q0 43 -29.5 63.5t-105.5 26.5
q-110 10 -154.5 41.5t-44.5 96.5zM553 1024h68l-5 420l175 -354h59l174 354l-4 -420h65v512h-86l-180 -373l-178 373h-88v-512z" />
    <glyph glyph-name="plusminus" unicode="&#xb1;" horiz-adv-x="1064" 
d="M123 86v135h819v-135h-819zM123 698v136h342v342h135v-342h342v-136h-342v-342h-135v342h-342z" />
    <glyph glyph-name="uni00B2" unicode="&#xb2;" horiz-adv-x="1761" 
d="M102 729l1047 -749v176l-766 518l-43 26h1298v136h-1298l43 26l766 518v176l-1047 -749v-78z" />
    <glyph glyph-name="uni00B3" unicode="&#xb3;" horiz-adv-x="1761" 
d="M123 700v136h1298l-43 26l-766 518v176l1047 -749v-78l-1047 -749v176l766 518l43 26h-1298z" />
    <glyph glyph-name="acute" unicode="&#xb4;" horiz-adv-x="1191" 
d="M92 1024h170l334 -553l334 553h170l-250 -377h188v-135h-278l-90 -135h368v-135h-372v-242h-138v242h-372v135h366l-90 135h-276v135h186z" />
    <glyph glyph-name="uni00B5" unicode="&#xb5;" horiz-adv-x="1095" 
d="M164 -512h139v539q62 -47 209 -47q168 0 309 106l31 -86h80v1024h-144v-858q-62 -35 -122 -50.5t-154 -15.5q-101 0 -153 39.5t-52 134.5v750h-143v-1536z" />
    <glyph glyph-name="paragraph" unicode="&#xb6;" horiz-adv-x="1146" 
d="M143 512q0 100 11 176.5t40 145.5t76.5 113.5t123.5 70.5t179 26q170 0 273 -96q-26 245 -107 363.5t-247 118.5q-204 0 -318 -56v123q111 59 318 59q103 0 181.5 -29t135 -89.5t94.5 -144.5t60.5 -205.5t31.5 -258.5t9 -317q0 -100 -11 -176.5t-39.5 -145.5
t-76.5 -113.5t-124.5 -70.5t-179.5 -26t-179 26t-123.5 70.5t-76.5 113.5t-40 145.5t-11 176.5zM287 512q0 -57 1.5 -95.5t8 -85t18 -76.5t32.5 -61t51 -48.5t74 -28.5t101 -11q65 0 113.5 13t79.5 41.5t50.5 61t28.5 83.5t12 96t3 111t-3 111t-12 96t-28.5 83.5t-50.5 61
t-79.5 41.5t-113.5 13q-57 0 -101 -11t-74 -28.5t-51 -48.5t-32.5 -61t-18 -76.5t-8 -85t-1.5 -95.5z" />
    <glyph glyph-name="periodcentered" unicode="&#xb7;" horiz-adv-x="1863" 
d="M143 768q0 161 62.5 307t168 251t251.5 167.5t307 62.5q214 0 395.5 -105.5t287 -287t105.5 -395.5t-105.5 -395.5t-287 -287t-395.5 -105.5q-161 0 -307 62.5t-251.5 167.5t-168 251t-62.5 307z" />
    <glyph glyph-name="cedilla" unicode="&#xb8;" horiz-adv-x="1392" 
d="M143 512q0 -107 19.5 -191.5t57 -141.5t85.5 -97t111.5 -61.5t128 -31t141.5 -9.5q94 0 169 13t147 48.5t120.5 93.5t77.5 153.5t29 223.5t-29.5 224t-77.5 154t-120 93.5t-147 48t-169 12.5t-169 -12.5t-147 -48t-120 -93.5t-77.5 -154t-29.5 -224zM281 512
q0 102 20 175.5t53.5 117.5t87.5 70t110.5 34.5t133.5 8.5t133.5 -8.5t110.5 -34.5t87.5 -70t54 -117.5t20.5 -175.5t-20.5 -175.5t-54 -117.5t-87.5 -70t-110.5 -34.5t-133.5 -8.5t-133.5 8.5t-110.5 34.5t-87.5 70t-53.5 117.5t-20 175.5zM465 227v570h248q198 0 198 -183
q0 -120 -84 -163l129 -224h-143l-115 203h-108v-203h-125zM590 551h119q42 0 56.5 16.5t14.5 46.5q0 31 -14.5 47.5t-56.5 16.5h-119v-127z" />
    <glyph glyph-name="uni00B9" unicode="&#xb9;" horiz-adv-x="1392" 
d="M143 512q0 -107 19.5 -191.5t57 -141.5t85.5 -97t111.5 -61.5t128 -31t141.5 -9.5q94 0 169 13t147 48.5t120.5 93.5t77.5 153.5t29 223.5t-29.5 224t-77.5 154t-120 93.5t-147 48t-169 12.5t-169 -12.5t-147 -48t-120 -93.5t-77.5 -154t-29.5 -224zM281 512
q0 102 20 175.5t53.5 117.5t87.5 70t110.5 34.5t133.5 8.5t133.5 -8.5t110.5 -34.5t87.5 -70t54 -117.5t20.5 -175.5t-20.5 -175.5t-54 -117.5t-87.5 -70t-110.5 -34.5t-133.5 -8.5t-133.5 8.5t-110.5 34.5t-87.5 70t-53.5 117.5t-20 175.5zM483 227v570h267
q103 0 150.5 -53.5t47.5 -139.5q0 -84 -48 -139t-150 -55h-142v-183h-125zM608 528h144q40 0 53.5 21t13.5 55t-13.5 54t-53.5 20h-144v-150z" />
    <glyph glyph-name="ordmasculine" unicode="&#xba;" horiz-adv-x="1863" 
d="M164 0h1536v1536h-1536v-1536zM309 135v1266h1245v-1266h-1245z" />
    <glyph glyph-name="guillemotright" unicode="&#xbb;" horiz-adv-x="819" 
d="M92 1010q0 106 72.5 168.5t212.5 72.5l184 11v36q0 75 -34.5 107.5t-123.5 32.5q-113 0 -237 -43v116q110 45 237 45q86 0 145 -18t90.5 -54.5t44.5 -81.5t13 -108v-520h-86l-14 49q-113 -65 -223 -65q-148 0 -214.5 64t-66.5 188zM229 1010q0 -133 148 -133q94 0 184 49
v235l-186 -18q-146 -15 -146 -133z" />
    <glyph glyph-name="onequarter" unicode="&#xbc;" horiz-adv-x="960" 
d="M123 1157q0 -201 83.5 -300t266.5 -99q365 0 365 399t-365 399q-183 0 -266.5 -99t-83.5 -300zM254 1157q0 151 50.5 214t168.5 63q122 0 179 -65t57 -212t-57 -211.5t-179 -64.5q-118 0 -168.5 62.5t-50.5 213.5z" />
    <glyph glyph-name="onehalf" unicode="&#xbd;" horiz-adv-x="811" 
d="M123 1157q0 201 83.5 300t266.5 99q119 0 215 -22v-125q-102 25 -215 25q-118 0 -168.5 -63t-50.5 -214t50.5 -213.5t168.5 -62.5q117 0 215 24v-125q-96 -22 -215 -22q-183 0 -266.5 99t-83.5 300z" />
    <glyph glyph-name="threequarters" unicode="&#xbe;" horiz-adv-x="1771" 
d="M133 289q0 64 17 112.5t57.5 89.5t116.5 62.5t186 21.5h299v127q0 114 -61 165t-207 51q-170 0 -324 -52v123q127 55 324 55q274 0 362 -141q106 141 336 141q85 0 149.5 -18t106.5 -55t69 -81.5t40.5 -109.5t18.5 -125.5t5 -142.5v-53h-676v-13q3 -58 11 -104t27.5 -92
t50 -76t81 -49t117.5 -19q111 0 187 13t151 45v-123q-138 -61 -338 -61q-227 0 -334 139q-50 -40 -63 -49q-122 -90 -322 -90q-197 0 -292 84.5t-95 224.5zM279 289q0 -39 10.5 -69t36 -57t76 -42t122.5 -15q84 0 162 26t127 67q30 25 35 30q-33 97 -39 228v2h-309
q-123 0 -172 -44t-49 -126zM952 575h533q-1 44 -2.5 75t-7 69.5t-16 65t-28.5 53.5t-43.5 43t-63 26.5t-85.5 10.5q-68 0 -118.5 -19t-81 -49.5t-50 -77.5t-27 -92.5t-10.5 -104.5z" />
    <glyph glyph-name="questiondown" unicode="&#xbf;" horiz-adv-x="1146" 
d="M143 0l84 125q-84 125 -84 387q0 100 11 176.5t40 145.5t76.5 113.5t123.5 70.5t179 26q153 0 242 -53l23 33h166l-86 -125q86 -122 86 -387q0 -100 -11 -176.5t-39.5 -145.5t-76.5 -113.5t-124.5 -70.5t-179.5 -26q-149 0 -243 51l-21 -31h-166zM287 512q0 -187 26 -260
l428 629q-61 37 -168 37q-57 0 -101 -11t-74 -28.5t-51 -48.5t-32.5 -61t-18 -76.5t-8 -85t-1.5 -95.5zM406 141q62 -35 167 -35q65 0 113.5 13t79.5 41.5t50.5 61t28.5 83.5t12 96t3 111q0 178 -31 256z" />
    <glyph glyph-name="Agrave" unicode="&#xc0;" horiz-adv-x="1024" 
d="M82 -127q0 -57 8 -103t27 -94.5t56 -84t91 -64.5t135.5 -44t186.5 -15q74 0 170 15.5t145 35.5v127q-129 -47 -317 -47q-89 0 -153.5 13t-104 35t-62.5 58t-31 75.5t-8 94.5q0 39 5 72t17.5 59.5t24 46t35 38t37.5 29.5t45.5 25t46.5 19.5t51 19.5q71 27 118 63t70 73
t30.5 86t3.5 90.5t-15 97.5h-84q0 -46 -1 -70.5t-5.5 -57.5t-14 -51.5t-26 -40.5t-43 -38t-63.5 -31q-78 -32 -127.5 -56t-101.5 -61t-80.5 -78.5t-47 -101t-18.5 -135.5zM496 932q0 47 32.5 79.5t79.5 32.5t80 -32.5t33 -79.5t-33 -80t-80 -33t-79.5 33t-32.5 80z" />
    <glyph glyph-name="Aacute" unicode="&#xc1;" horiz-adv-x="450" 
d="M113 -512l71 1106h82l72 -1106h-225zM113 932q0 47 32.5 79.5t79.5 32.5t80 -32.5t33 -79.5t-33 -80t-80 -33t-79.5 33t-32.5 80z" />
    <glyph glyph-name="Acircumflex" unicode="&#xc2;" horiz-adv-x="1351" 
d="M164 0h1024v1024h-1024v-1024z" />
    <glyph glyph-name="Atilde" unicode="&#xc3;" horiz-adv-x="1351" 
d="M164 0h1024v1024h-1024v-1024zM299 125v774h754v-774h-754z" />
    <glyph glyph-name="Adieresis" unicode="&#xc4;" horiz-adv-x="1085" 
d="M61 399v64l205 59v185q0 160 91 248.5t278 88.5q189 0 307 -51v-123q-142 48 -307 48q-103 0 -167.5 -55t-64.5 -156v-195h488v-113h-488v-911h-137v911h-205z" />
    <glyph glyph-name="Aring" unicode="&#xc5;" horiz-adv-x="1351" 
d="M164 0h1024v1024h-1024v-1024zM299 125v774h754v-774h-754zM358 291l222 221l-222 221l97 96l221 -221l221 221l96 -96l-221 -221l221 -221l-96 -96l-221 221l-221 -221z" />
    <glyph glyph-name="Ccedilla" unicode="&#xc7;" horiz-adv-x="1013" 
d="M113 444l389 -288v137l-248 219l248 219v135l-389 -286v-136zM502 444l389 -288v137l-248 219l248 219v135l-389 -286v-136z" />
    <glyph glyph-name="Egrave" unicode="&#xc8;" horiz-adv-x="1013" 
d="M123 156v137l248 219l-248 219v135l389 -286v-136zM512 156v137l248 219l-248 219v135l389 -286v-136z" />
    <glyph glyph-name="Eacute" unicode="&#xc9;" horiz-adv-x="2027" 
d="M225 92q0 47 33 80t80 33t80 -33t33 -80t-33 -79.5t-80 -32.5t-80 32.5t-33 79.5zM901 92q0 47 33 80t80 33t79.5 -33t32.5 -80t-32.5 -79.5t-79.5 -32.5t-80 32.5t-33 79.5zM1577 92q0 47 33 80t80 33t79.5 -33t32.5 -80t-32.5 -79.5t-79.5 -32.5t-80 32.5t-33 79.5z
" />
    <glyph glyph-name="Edieresis" unicode="&#xcb;" horiz-adv-x="1372" 
d="M92 0h160l141 430h586l141 -430h160l-543 1556h-102zM358 2048h195l164 -358h-62zM434 557l252 768l252 -768h-504z" />
    <glyph glyph-name="Igrave" unicode="&#xcc;" horiz-adv-x="1372" 
d="M92 0h160l141 430h586l141 -430h160l-543 1556h-102zM379 1815v106q76 -55 153 -55q34 0 68.5 20.5t60 45t70 45t96.5 20.5q48 0 92.5 -22.5t73.5 -51.5v-106q-76 55 -153 55q-34 0 -68.5 -20.5t-60 -45t-70 -45t-96.5 -20.5q-48 0 -92.5 22.5t-73.5 51.5zM434 557
l252 768l252 -768h-504z" />
    <glyph glyph-name="Iacute" unicode="&#xcd;" horiz-adv-x="1454" 
d="M154 768q0 94 5 170.5t20.5 160.5t41.5 148t70 124.5t103 99.5t143.5 62t189.5 23q106 0 191 -23.5t144 -62t102.5 -99t69.5 -124.5t41 -148t20 -160.5t5 -170.5t-5 -170.5t-20 -160.5t-41 -148t-69.5 -124.5t-102.5 -99t-144 -62t-191 -23.5q-105 0 -189.5 23t-143.5 62
t-103 99.5t-70 124.5t-41.5 148t-20.5 160.5t-5 170.5zM305 768q0 -83 4 -149t15 -136.5t30 -123t51 -101.5t76 -79.5t106 -49t140 -18.5t140 18.5t106 49t76 79.5t51 101.5t30 123t15 136.5t4 149t-4 149t-15 136.5t-30 123t-51 101.5t-76 79.5t-106 49t-140 18.5
t-140 -18.5t-106 -49t-76 -79.5t-51 -101.5t-30 -123t-15 -136.5t-4 -149zM420 1815v106q76 -55 153 -55q34 0 68.5 20.5t60 45t70 45t96.5 20.5q48 0 92.5 -22.5t73.5 -51.5v-106q-76 55 -153 55q-34 0 -68.5 -20.5t-60 -45t-70 -45t-96.5 -20.5q-48 0 -92.5 22.5
t-73.5 51.5z" />
    <glyph glyph-name="Icircumflex" unicode="&#xce;" horiz-adv-x="1843" 
d="M133 768q0 -137 19 -248t64.5 -210t118.5 -166t185.5 -105.5t259.5 -38.5h930v135h-666v594h594v135h-594v537h666v135h-930q-147 0 -259.5 -38.5t-185.5 -105.5t-118.5 -166t-64.5 -210t-19 -248zM291 768q0 115 14.5 208t49 174t88.5 135t137.5 85t191.5 31h127v-1266
h-127q-108 0 -191.5 31t-137.5 85t-88.5 135t-49 174t-14.5 208z" />
    <glyph glyph-name="Idieresis" unicode="&#xcf;" horiz-adv-x="1822" 
d="M143 512q0 100 11 176.5t40 145.5t76.5 113.5t123.5 70.5t179 26q265 0 361 -172q102 172 356 172q85 0 149.5 -18t106.5 -55t69 -81.5t40.5 -109.5t18.5 -125.5t5 -142.5v-66h-675q3 -59 10.5 -104.5t27 -91.5t50 -76t81 -49t117.5 -19q111 0 187 13t151 45v-123
q-138 -61 -338 -61q-254 0 -356 172q-96 -172 -361 -172q-103 0 -179 26t-123.5 70.5t-76.5 113.5t-40 145.5t-11 176.5zM287 512q0 -57 1.5 -95.5t8 -85t18 -76.5t32.5 -61t51 -48.5t74 -28.5t101 -11q65 0 113.5 13t79.5 41.5t50.5 61t28.5 83.5t12 96t3 111t-3 111
t-12 96t-28.5 83.5t-50.5 61t-79.5 41.5t-113.5 13q-57 0 -101 -11t-74 -28.5t-51 -48.5t-32.5 -61t-18 -76.5t-8 -85t-1.5 -95.5zM1004 563h532q0 41 -1 68t-4 63.5t-10.5 61t-19 52.5t-30 46t-43.5 33.5t-60 23t-78 7.5q-69 0 -120.5 -20t-81.5 -51.5t-49 -80t-26 -95.5
t-9 -108z" />
    <glyph glyph-name="Eth" unicode="&#xd0;" horiz-adv-x="1167" 
d="M123 631v135h921v-135h-921z" />
    <glyph glyph-name="Ntilde" unicode="&#xd1;" horiz-adv-x="1576" 
d="M123 631v135h1331v-135h-1331z" />
    <glyph glyph-name="Ograve" unicode="&#xd2;" horiz-adv-x="634" 
d="M16 1024q2 89 23 174.5t49.5 143.5t56 104t47.5 68l19 22h49q-2 -4 -5.5 -12t-13 -35.5t-17.5 -57.5t-16.5 -76.5t-13 -94.5t-3 -110.5t9.5 -125.5h-185zM324 1024q2 89 23 174.5t49 143.5t56 104t47 68l19 22h49q-2 -4 -5.5 -12t-13 -35.5t-17.5 -57.5t-16.5 -76.5
t-13 -94.5t-3 -110.5t9.5 -125.5h-184z" />
    <glyph glyph-name="Oacute" unicode="&#xd3;" horiz-adv-x="634" 
d="M68 1024q2 4 5.5 12t13 35.5t17.5 57.5t16.5 76.5t13 94.5t3 110.5t-9.5 125.5h184q-2 -89 -23 -174.5t-49 -143.5t-56 -104t-47 -68l-19 -22h-49zM375 1024q2 4 5.5 12t13 35.5t17.5 57.5t16.5 76.5t13 94.5t3 110.5t-9.5 125.5h184q-2 -89 -23 -174.5t-49 -143.5
t-56 -104t-47 -68l-19 -22h-49z" />
    <glyph glyph-name="Ocircumflex" unicode="&#xd4;" horiz-adv-x="327" 
d="M16 1024q2 89 23 174.5t49.5 143.5t56 104t47.5 68l19 22h49q-2 -4 -5.5 -12t-13 -35.5t-17.5 -57.5t-16.5 -76.5t-13 -94.5t-3 -110.5t9.5 -125.5h-185z" />
    <glyph glyph-name="Otilde" unicode="&#xd5;" horiz-adv-x="327" 
d="M68 1024q2 4 5.5 12t13 35.5t17.5 57.5t16.5 76.5t13 94.5t3 110.5t-9.5 125.5h184q-2 -89 -23 -174.5t-49 -143.5t-56 -104t-47 -68l-19 -22h-49z" />
    <glyph glyph-name="Odieresis" unicode="&#xd6;" horiz-adv-x="1064" 
d="M123 631h819v135h-819v-135zM420 381q0 47 32.5 80t79.5 33t80 -33t33 -80t-33 -80t-80 -33t-79.5 33t-32.5 80zM420 1016q0 -47 32.5 -80t79.5 -33t80 33t33 80t-33 79.5t-80 32.5t-79.5 -32.5t-32.5 -79.5z" />
    <glyph glyph-name="multiply" unicode="&#xd7;" horiz-adv-x="1863" 
d="M164 0h1536v1536h-1536v-1536zM309 135v1266h1245v-1266h-1245zM369 301l467 467l-467 467l96 96l467 -467l467 467l96 -96l-467 -467l467 -467l-96 -96l-467 467l-467 -467z" />
    <glyph glyph-name="Oslash" unicode="&#xd8;" horiz-adv-x="1044" 
d="M72 1024h164l286 -840l287 840h164l-590 -1536h-154l232 539zM205 1403q0 -47 32.5 -80t79.5 -33t80 33t33 80t-33 80t-80 33t-79.5 -33t-32.5 -80zM614 1403q0 47 33 80t80 33t80 -33t33 -80t-33 -80t-80 -33t-80 33t-33 80z" />
    <glyph glyph-name="Ugrave" unicode="&#xd9;" horiz-adv-x="1433" 
d="M92 1536h176l449 -772l448 772h176l-553 -901v-635h-143v635zM401 1915q0 -47 33 -80t80 -33t80 33t33 80t-33 80t-80 33t-80 -33t-33 -80zM811 1915q0 47 33 80t80 33t79.5 -33t32.5 -80t-32.5 -80t-79.5 -33t-80 33t-33 80z" />
    <glyph glyph-name="Ucircumflex" unicode="&#xdb;" horiz-adv-x="1085" 
d="M51 309v135h125q-2 23 -2 68t2 68h-125v135h146q83 329 460 329q188 0 306 -51v-123q-142 48 -308 48q-234 0 -307 -203h467l-47 -135h-449q-2 -23 -2 -68t2 -68h402l-47 -135h-326q72 -203 307 -203q166 0 308 48v-123q-118 -51 -306 -51q-378 0 -460 329h-146z" />
    <glyph glyph-name="Udieresis" unicode="&#xdc;" horiz-adv-x="624" 
d="M113 444l389 -288v137l-248 219l248 219v135l-389 -286v-136z" />
    <glyph glyph-name="Yacute" unicode="&#xdd;" horiz-adv-x="624" 
d="M123 156v137l248 219l-248 219v135l389 -286v-136z" />
    <glyph glyph-name="Thorn" unicode="&#xde;" horiz-adv-x="1392" 
d="M61 911v64l205 59v215q0 307 369 307q86 0 143 -14v-129q-70 17 -143 17q-107 0 -169.5 -43t-62.5 -138v-225h324v-113h-324v-911h-137v911h-205zM983 1403q0 47 33 80t80 33t79.5 -33t32.5 -80t-32.5 -80t-79.5 -33t-80 33t-33 80zM1026 205v819h139v-836
q0 -53 19 -72.5t67 -19.5v-116q-114 0 -169.5 52.5t-55.5 172.5z" />
    <glyph glyph-name="germandbls" unicode="&#xdf;" horiz-adv-x="1392" 
d="M61 911v64l205 59v215q0 307 369 307q86 0 143 -14v-129q-70 17 -143 17q-107 0 -169.5 -43t-62.5 -138v-225h324v-113h-324v-911h-137v911h-205zM1026 205v1331h139v-1348q0 -53 19 -72.5t67 -19.5v-116q-114 0 -169.5 52.5t-55.5 172.5z" />
    <glyph glyph-name="agrave" unicode="&#xe0;" horiz-adv-x="788" 
d="M47 700l289 41v78l-289 41v-160zM47 1108l289 41v78l-289 41v-160zM293 209l63 512h78l64 -512h-205zM315 1536h160l-41 -289h-78zM336 983l20 -143h78l21 143l-21 145h-78zM455 741v78l288 41v-160zM455 1149v78l288 41v-160z" />
    <glyph glyph-name="aacute" unicode="&#xe1;" horiz-adv-x="450" 
d="M113 768q0 47 32.5 80t79.5 33t80 -33t33 -80t-33 -80t-80 -33t-79.5 33t-32.5 80z" />
    <glyph glyph-name="acircumflex" unicode="&#xe2;" horiz-adv-x="327" 
d="M68 -328q2 4 5.5 12t13 35.5t17.5 57.5t16.5 76.5t13 94.5t3 110.5t-9.5 125.5h184q-2 -89 -23 -174.5t-49 -143.5t-56 -104t-47 -68l-19 -22h-49z" />
    <glyph glyph-name="atilde" unicode="&#xe3;" horiz-adv-x="634" 
d="M68 -328q2 4 5.5 12t13 35.5t17.5 57.5t16.5 76.5t13 94.5t3 110.5t-9.5 125.5h184q-2 -89 -23 -174.5t-49 -143.5t-56 -104t-47 -68l-19 -22h-49zM375 -328q2 4 5.5 12t13 35.5t17.5 57.5t16.5 76.5t13 94.5t3 110.5t-9.5 125.5h184q-2 -89 -23 -174.5t-49 -143.5
t-56 -104t-47 -68l-19 -22h-49z" />
    <glyph glyph-name="adieresis" unicode="&#xe4;" horiz-adv-x="2754" 
d="M133 1157q0 201 83.5 300t266.5 99t267 -99.5t84 -299.5t-84 -299.5t-267 -99.5t-266.5 99t-83.5 300zM264 1157q0 -151 50.5 -213.5t168.5 -62.5t168.5 62.5t50.5 213.5t-50.5 214t-168.5 63t-168.5 -63t-50.5 -214zM326 0l1085 1536h158l-1086 -1536h-157zM1061 379
q0 201 83.5 300t266.5 99t266.5 -99t83.5 -300t-83.5 -300t-266.5 -99t-266.5 99t-83.5 300zM1192 379q0 -151 50.5 -214t168.5 -63t168.5 63t50.5 214t-50.5 213.5t-168.5 62.5t-168.5 -62.5t-50.5 -213.5zM1921 379q0 201 83.5 300t266.5 99t266.5 -99t83.5 -300
t-83.5 -300t-266.5 -99t-266.5 99t-83.5 300zM2052 379q0 -151 50.5 -214t168.5 -63t168.5 63t50.5 214t-50.5 213.5t-168.5 62.5t-168.5 -62.5t-50.5 -213.5z" />
    <glyph glyph-name="aring" unicode="&#xe5;" horiz-adv-x="1372" 
d="M92 0h160l141 430h586l141 -430h160l-543 1556h-102zM348 1690l256 358h164l256 -358h-61l-277 237l-276 -237h-62zM434 557l252 768l252 -768h-504z" />
    <glyph glyph-name="ae" unicode="&#xe6;" horiz-adv-x="1228" 
d="M184 0v1536h891v-135h-745v-537h674v-135h-674v-594h745v-135h-891zM293 1690l256 358h164l256 -358h-62l-276 237l-277 -237h-61z" />
    <glyph glyph-name="ccedilla" unicode="&#xe7;" horiz-adv-x="1372" 
d="M92 0h160l141 430h586l141 -430h160l-543 1556h-102zM434 557l252 768l252 -768h-504zM655 1690h62l297 358h-195z" />
    <glyph glyph-name="egrave" unicode="&#xe8;" horiz-adv-x="1228" 
d="M184 0v1536h891v-135h-745v-537h674v-135h-674v-594h745v-135h-891zM313 1915q0 -47 33 -80t80 -33t80 33t33 80t-33 80t-80 33t-80 -33t-33 -80zM723 1915q0 47 33 80t80 33t79.5 -33t32.5 -80t-32.5 -80t-79.5 -33t-80 33t-33 80z" />
    <glyph glyph-name="eacute" unicode="&#xe9;" horiz-adv-x="1228" 
d="M184 0v1536h891v-135h-745v-537h674v-135h-674v-594h745v-135h-891zM303 2048h195l164 -358h-62z" />
    <glyph glyph-name="ecircumflex" unicode="&#xea;" horiz-adv-x="604" 
d="M229 0v1536h146v-1536h-146zM272 1690h62l297 358h-195z" />
    <glyph glyph-name="edieresis" unicode="&#xeb;" horiz-adv-x="604" 
d="M-35 1690l256 358h164l256 -358h-61l-277 237l-276 -237h-62zM229 0v1536h146v-1536h-146z" />
    <glyph glyph-name="igrave" unicode="&#xec;" horiz-adv-x="604" 
d="M-14 1915q0 -47 32.5 -80t79.5 -33t80 33t33 80t-33 80t-80 33t-79.5 -33t-32.5 -80zM229 0v1536h146v-1536h-146zM395 1915q0 47 33 80t80 33t80 -33t33 -80t-33 -80t-80 -33t-80 33t-33 80z" />
    <glyph glyph-name="iacute" unicode="&#xed;" horiz-adv-x="604" 
d="M-25 2048h195l164 -358h-62zM229 0v1536h146v-1536h-146z" />
    <glyph glyph-name="icircumflex" unicode="&#xee;" horiz-adv-x="1454" 
d="M154 768q0 94 5 170.5t20.5 160.5t41.5 148t70 124.5t103 99.5t143.5 62t189.5 23q106 0 191 -23.5t144 -62t102.5 -99t69.5 -124.5t41 -148t20 -160.5t5 -170.5t-5 -170.5t-20 -160.5t-41 -148t-69.5 -124.5t-102.5 -99t-144 -62t-191 -23.5q-105 0 -189.5 23t-143.5 62
t-103 99.5t-70 124.5t-41.5 148t-20.5 160.5t-5 170.5zM305 768q0 -83 4 -149t15 -136.5t30 -123t51 -101.5t76 -79.5t106 -49t140 -18.5t140 18.5t106 49t76 79.5t51 101.5t30 123t15 136.5t4 149t-4 149t-15 136.5t-30 123t-51 101.5t-76 79.5t-106 49t-140 18.5
t-140 -18.5t-106 -49t-76 -79.5t-51 -101.5t-30 -123t-15 -136.5t-4 -149zM696 1690h62l297 358h-195z" />
    <glyph glyph-name="idieresis" unicode="&#xef;" horiz-adv-x="1454" 
d="M154 768q0 94 5 170.5t20.5 160.5t41.5 148t70 124.5t103 99.5t143.5 62t189.5 23q106 0 191 -23.5t144 -62t102.5 -99t69.5 -124.5t41 -148t20 -160.5t5 -170.5t-5 -170.5t-20 -160.5t-41 -148t-69.5 -124.5t-102.5 -99t-144 -62t-191 -23.5q-105 0 -189.5 23t-143.5 62
t-103 99.5t-70 124.5t-41.5 148t-20.5 160.5t-5 170.5zM305 768q0 -83 4 -149t15 -136.5t30 -123t51 -101.5t76 -79.5t106 -49t140 -18.5t140 18.5t106 49t76 79.5t51 101.5t30 123t15 136.5t4 149t-4 149t-15 136.5t-30 123t-51 101.5t-76 79.5t-106 49t-140 18.5
t-140 -18.5t-106 -49t-76 -79.5t-51 -101.5t-30 -123t-15 -136.5t-4 -149zM389 1690l256 358h164l256 -358h-61l-277 237l-276 -237h-62z" />
    <glyph glyph-name="eth" unicode="&#xf0;" horiz-adv-x="1863" 
d="M164 598q5 31 43 80l-43 -21v-59zM164 707l98 41q59 66 139 116q26 17 58.5 30t76.5 27.5t66 22.5l-438 -104v-133zM164 881l504 94q27 16 57 43l-561 -14v-123zM164 1044l573 -14q11 8 21 25l-594 110v-121zM164 1206l602 -141q8 12 12 20l-614 256v-135zM164 1389
l620 -295q2 5 13 20l-609 422h-24v-147zM266 1536l537 -412q2 3 6 10.5t6 10.5l-369 391h-180zM496 1536l325 -383q3 4 8.5 11.5t8.5 11.5l-220 360h-122zM655 1536l191 -350q3 3 9.5 10.5t10.5 11.5l-114 328h-97zM780 1536l94 -319q7 7 27 22l-37 297h-84zM891 1536
l22 -287q4 2 16 9.5t19 9.5l23 268h-80zM965 1274q8 4 24 8l12 -18l82 272h-84zM1012 1247l22 -33l174 322h-96zM1042 1202l17 -26l309 360h-123zM1067 1163l14 -22l516 395h-180zM1090 1130l14 -24l596 283v147h-25zM1112 1096l2 -2q9 -18 14 -23l572 135v135zM1135 1059
q4 -5 12 -14.5t12 -14.5l541 14v121zM1171 1016q27 -24 54 -45l475 -90v123zM1257 944q60 -49 82 -88l361 -149v133zM1354 821q0 -6 4 -14q12 -61 116 -113t226 -80v43z" />
    <glyph glyph-name="ntilde" unicode="&#xf1;" horiz-adv-x="1454" 
d="M154 768q0 94 5 170.5t20.5 160.5t41.5 148t70 124.5t103 99.5t143.5 62t189.5 23q106 0 191 -23.5t144 -62t102.5 -99t69.5 -124.5t41 -148t20 -160.5t5 -170.5t-5 -170.5t-20 -160.5t-41 -148t-69.5 -124.5t-102.5 -99t-144 -62t-191 -23.5q-105 0 -189.5 23t-143.5 62
t-103 99.5t-70 124.5t-41.5 148t-20.5 160.5t-5 170.5zM305 768q0 -83 4 -149t15 -136.5t30 -123t51 -101.5t76 -79.5t106 -49t140 -18.5t140 18.5t106 49t76 79.5t51 101.5t30 123t15 136.5t4 149t-4 149t-15 136.5t-30 123t-51 101.5t-76 79.5t-106 49t-140 18.5
t-140 -18.5t-106 -49t-76 -79.5t-51 -101.5t-30 -123t-15 -136.5t-4 -149zM399 2048h195l164 -358h-62z" />
    <glyph glyph-name="ograve" unicode="&#xf2;" horiz-adv-x="1433" 
d="M174 481v1055h145v-1028q0 -395 398 -395q397 0 397 395v1028h146v-1055q0 -90 -21 -164.5t-54.5 -125.5t-80.5 -90t-95.5 -61.5t-104 -36.5t-99.5 -18.5t-88 -4.5t-88 4.5t-99.5 18.5t-104 36.5t-95.5 61.5t-80.5 90t-54.5 125.5t-21 164.5zM686 1690h62l296 358h-194z
" />
    <glyph glyph-name="oacute" unicode="&#xf3;" horiz-adv-x="1433" 
d="M174 481v1055h145v-1028q0 -395 398 -395q397 0 397 395v1028h146v-1055q0 -90 -21 -164.5t-54.5 -125.5t-80.5 -90t-95.5 -61.5t-104 -36.5t-99.5 -18.5t-88 -4.5t-88 4.5t-99.5 18.5t-104 36.5t-95.5 61.5t-80.5 90t-54.5 125.5t-21 164.5zM379 1690l256 358h164
l256 -358h-62l-276 237l-277 -237h-61z" />
    <glyph glyph-name="ocircumflex" unicode="&#xf4;" horiz-adv-x="1433" 
d="M174 481v1055h145v-1028q0 -395 398 -395q397 0 397 395v1028h146v-1055q0 -90 -21 -164.5t-54.5 -125.5t-80.5 -90t-95.5 -61.5t-104 -36.5t-99.5 -18.5t-88 -4.5t-88 4.5t-99.5 18.5t-104 36.5t-95.5 61.5t-80.5 90t-54.5 125.5t-21 164.5zM389 2048h195l164 -358h-62z
" />
    <glyph glyph-name="otilde" unicode="&#xf5;" horiz-adv-x="573" 
d="M207 205v819h139v-836q0 -53 19 -72.5t67 -19.5v-116q-114 0 -169.5 52.5t-55.5 172.5z" />
    <glyph glyph-name="odieresis" unicode="&#xf6;" 
d="M236 1178l256 358h163l256 -358h-61l-277 237l-276 -237h-61z" />
    <glyph glyph-name="divide" unicode="&#xf7;" horiz-adv-x="1232" 
d="M266 1303v106q76 -55 154 -55q34 0 68.5 20.5t60 45t70 45t96.5 20.5q48 0 92.5 -22.5t73.5 -51.5v-106q-76 55 -154 55q-34 0 -68.5 -20.5t-60 -45t-70 -45t-96.5 -20.5q-48 0 -92.5 22.5t-73.5 51.5z" />
    <glyph glyph-name="oslash" unicode="&#xf8;" horiz-adv-x="1232" 
d="M334 1393v133h561v-133h-561z" />
    <glyph glyph-name="ugrave" unicode="&#xf9;" horiz-adv-x="1232" 
d="M256 1536h84q3 -110 59 -162.5t174 -52.5t174.5 52.5t59.5 162.5h84q-4 -183 -84 -260.5t-234 -77.5t-233.5 77.5t-83.5 260.5z" />
    <glyph glyph-name="uacute" unicode="&#xfa;" 
d="M461 1403q0 -47 32.5 -80t79.5 -33t80 33t33 80t-33 80t-80 33t-79.5 -33t-32.5 -80z" />
    <glyph glyph-name="ucircumflex" unicode="&#xfb;" horiz-adv-x="1232" 
d="M371 1356q0 102 53 151t149 49q95 0 148 -49t53 -151q0 -101 -53.5 -150t-147.5 -49q-96 0 -149 49t-53 150zM473 1356q0 -53 25 -76t75 -23q48 0 73.5 23t25.5 76q0 54 -25 77t-74 23q-50 0 -75 -22.5t-25 -77.5z" />
    <glyph glyph-name="udieresis" unicode="&#xfc;" horiz-adv-x="1232" 
d="M467 -102.5q11 32.5 24.5 56t32.5 46.5h92q-23 -29 -33.5 -50t-5 -48t40.5 -47q47 -26 65.5 -60.5t9 -67.5t-25.5 -59t-38 -47h-156q29 25 49.5 56t23.5 60.5t-24 45.5q-39 21 -52.5 51.5t-2.5 63z" />
    <glyph glyph-name="yacute" unicode="&#xfd;" 
d="M369 1178h61l297 358h-195zM676 1178h61l297 358h-194z" />
    <glyph glyph-name="thorn" unicode="&#xfe;" horiz-adv-x="1232" 
d="M569 -231q0 89 78.5 168t173.5 110v-47q-46 -15 -80 -89.5t-28 -143.5q8 -90 78 -146h-156q-66 56 -66 148z" />
    <glyph glyph-name="ydieresis" unicode="&#xff;" 
d="M236 1536l256 -358h163l256 358h-61l-277 -238l-276 238h-61z" />
    <glyph glyph-name="uni2000" unicode="&#x2000;" horiz-adv-x="1034" 
 />
    <glyph glyph-name="uni2001" unicode="&#x2001;" horiz-adv-x="2068" 
 />
    <glyph glyph-name="uni2002" unicode="&#x2002;" horiz-adv-x="1034" 
 />
    <glyph glyph-name="uni2003" unicode="&#x2003;" horiz-adv-x="2068" 
 />
    <glyph glyph-name="uni2004" unicode="&#x2004;" horiz-adv-x="689" 
 />
    <glyph glyph-name="uni2005" unicode="&#x2005;" horiz-adv-x="517" 
 />
    <glyph glyph-name="uni2006" unicode="&#x2006;" horiz-adv-x="344" 
 />
    <glyph glyph-name="uni2007" unicode="&#x2007;" horiz-adv-x="344" 
 />
    <glyph glyph-name="uni2008" unicode="&#x2008;" horiz-adv-x="258" 
 />
    <glyph glyph-name="uni2009" unicode="&#x2009;" horiz-adv-x="413" 
 />
    <glyph glyph-name="uni200A" unicode="&#x200a;" horiz-adv-x="114" 
 />
    <glyph glyph-name="uni2010" unicode="&#x2010;" horiz-adv-x="757" 
d="M123 631v135h512v-135h-512z" />
    <glyph glyph-name="uni2011" unicode="&#x2011;" horiz-adv-x="757" 
d="M123 631v135h512v-135h-512z" />
    <glyph glyph-name="figuredash" unicode="&#x2012;" horiz-adv-x="757" 
d="M123 631v135h512v-135h-512z" />
    <glyph glyph-name="endash" unicode="&#x2013;" horiz-adv-x="1269" 
d="M123 631v135h1024v-135h-1024z" />
    <glyph glyph-name="emdash" unicode="&#x2014;" horiz-adv-x="2293" 
d="M123 631v135h2048v-135h-2048z" />
    <glyph glyph-name="uni202F" unicode="&#x202f;" horiz-adv-x="413" 
 />
    <glyph glyph-name="uni205F" unicode="&#x205f;" horiz-adv-x="517" 
 />
    <glyph glyph-name="uniE000" unicode="&#xe000;" horiz-adv-x="1024" 
d="M0 0v1024h1024v-1024h-1024z" />
    </font>
</defs>
</svg>
